<svg width="139" height="35" fill="none" xmlns="http://www.w3.org/2000/svg"><g id="zqNW13.tif"><path id="Vector" d="M53.294 32.802l.306 1.092c.07.254.02.383-.29.377a42.078 42.078 0 00-2.314.001c-.306.01-.419-.135-.49-.386-.717-2.56-1.434-5.12-2.153-7.68-.058-.157-.094-.32-.142-.48l-.399-1.328c-.215 0-.14.218-.23.31l-2.363 5.867c-.582 1.444-1.169 2.885-1.793 4.426l-1.964-4.793c-.069-.19-.165-.368-.229-.56l-.4-1.087c-.063-.127-.072-.275-.162-.39l-1.263-3.206c-.064-.167-.16-.32-.214-.493a.2.2 0 01-.017-.06c-.221-.176-.154.088-.221.146a6927.14 6927.14 0 00-2.318 8.123c-.12.425-.242.854-.34 1.287-.05.22-.157.304-.379.303-.81-.007-1.621-.008-2.43 0-.277.003-.291-.104-.227-.337.311-1.13.605-2.267.906-3.401.522-1.966 1.047-3.93 1.57-5.895.432-1.626.867-3.25 1.299-4.877l1.051-3.97c.047-.174.111-.346.19-.586l1.786 4.391c.094.153.108.34.215.486l1.266 3.133c.065.125.071.275.165.388l1.672 4.092c.036-.007.07-.015.106-.021.694-1.727 1.38-3.459 2.084-5.18.813-1.99 1.645-3.972 2.466-5.958a36 36 0 00.403-1.02c.03-.077.05-.16.14-.17.124-.012.086.101.104.167l2.139 8.093c.282 1.071.568 2.141.85 3.213.104.23.096.496.214.723.386 1.437.772 2.875 1.156 4.314.02.075.029.152.041.23.108.229.096.494.214.72l-.005-.004z" fill="#D0507F"/><path id="Vector_2" d="M.007 25.125c0-2.905.006-5.81-.008-8.715-.001-.338.074-.454.429-.438.692.03 1.387.033 2.078 0 .381-.019.445.124.442.465-.014 2.016.002 4.03-.015 6.046-.004.353.105.436.444.435 2.222-.014 4.446-.014 6.668 0 .32.001.422-.077.42-.412-.015-2.04 0-4.083-.015-6.124-.003-.332.093-.42.414-.407.692.025 1.386.008 2.078.008.329 0 .493.172.493.517v15.9c0 .51-.01 1.02.003 1.53.006.258-.09.344-.344.34a44.163 44.163 0 00-2.234.002c-.336.011-.412-.102-.41-.42.012-2.579 0-5.157.016-7.735.003-.373-.084-.484-.47-.481-2.21.019-4.42.017-6.629 0-.348-.003-.438.093-.436.438.014 2.578 0 5.157.016 7.735.001.361-.1.477-.465.462a19.296 19.296 0 00-2 .003c-.425.027-.489-.135-.486-.512.014-2.879.008-5.759.008-8.637h.003z" fill="#D0507F"/><path id="Vector_3" d="M75.507 21.165c1.008-2.327 2.692-3.966 5.024-4.945.191-.06.367-.159.557-.226a9.233 9.233 0 013.363-.4c2.31.166 4.26 1.105 5.868 2.766.135.14.107.226-.03.349-.59.53-1.167 1.078-1.756 1.612-.136.124-.25.213-.447.003a5.582 5.582 0 00-3.465-1.732c-1.8-.216-3.415.263-4.78 1.482-.978.874-1.623 1.96-1.97 3.224-.772 2.808.298 5.824 2.762 7.395 1.703 1.086 3.536 1.246 5.431.506.096-.037.189-.083.281-.124.1-.069.225-.081.317-.162.542-.246.998-.612 1.416-1.027.147-.148.243-.18.414-.017a73.37 73.37 0 001.797 1.629c.159.14.102.235-.01.352-1.382 1.444-3.061 2.33-5.03 2.647-2.399.387-4.599-.173-6.57-1.55-1.585-1.105-2.693-2.61-3.39-4.425-.656-1.708-.723-3.463-.458-5.24.09-.614.276-1.219.529-1.794.047-.108.077-.226.146-.325l.001.002z" fill="#D0507F"/><path id="Vector_4" d="M130.128 15.987c1.491 0 2.98.01 4.471-.006.312-.003.438.06.422.402-.028.64-.023 1.282 0 1.923.01.296-.08.376-.373.373-2-.013-4.001.001-6.002-.014-.343-.004-.444.081-.438.432a97.19 97.19 0 01.002 3.415c-.005.296.085.379.378.376 1.477-.014 2.955.003 4.432-.014.333-.003.425.1.413.422-.024.561-.03 1.127 0 1.688.022.39-.086.521-.498.515-1.437-.025-2.876 0-4.314-.017-.333-.005-.416.102-.413.422.015 1.714.018 3.428-.001 5.143-.005.369.083.488.471.485 1.974-.02 3.948-.002 5.923-.016.326-.001.431.092.419.42a30.824 30.824 0 00-.002 1.923c.006.265-.067.366-.35.366-3.034-.008-6.066-.01-9.099 0-.349 0-.369-.17-.369-.438.006-2.604-.006-5.209.014-7.812.003-.407-.111-.522-.504-.497-.345.022-.792.16-1.021-.064-.231-.225-.062-.67-.076-1.018-.014-.379.013-.76-.009-1.137-.017-.285.061-.409.367-.382.286.025.576-.014.862.01.296.026.379-.081.376-.375-.014-1.387-.006-2.774-.006-4.16 0-.654.02-1.309-.008-1.962-.014-.341.107-.409.422-.406 1.504.016 3.007.007 4.511.007v-.004z" fill="#D0507F"/><path id="Vector_5" d="M61.076 34.264c-1.491 0-2.98-.01-4.471.008-.336.005-.412-.102-.41-.42.012-2.643 0-5.288.016-7.93.001-.346-.087-.472-.437-.437-.298.028-.6-.006-.9.01-.245.012-.316-.087-.311-.321.01-.668.01-1.336 0-2.002-.003-.218.064-.306.29-.297.326.014.654-.014.98.008.294.02.376-.086.374-.379-.012-2.028.004-4.056-.015-6.085-.003-.366.102-.449.453-.447 2.98.014 5.96.012 8.943 0 .332 0 .461.063.442.426a20.406 20.406 0 00-.001 1.883c.012.316-.091.395-.397.392-2.014-.013-4.027.001-6.04-.016-.35-.003-.439.1-.432.441a90.99 90.99 0 010 3.337c-.007.343.09.453.44.45 1.465-.018 2.929 0 4.393-.015.301-.003.41.071.397.389a26.87 26.87 0 00-.001 1.883c.008.282-.091.354-.36.352-1.476-.01-2.955.007-4.432-.012-.35-.005-.44.102-.438.444.016 1.727.018 3.455 0 5.182-.003.355.112.437.45.435 1.999-.014 4 0 6-.014.322-.002.432.086.42.418-.024.64-.02 1.282 0 1.923.01.311-.094.402-.404.4-1.516-.014-3.033-.006-4.55-.006z" fill="#D0507F"/><path id="Vector_6" d="M113.245 11.758c.025.275.114.533.205.792.083.236.071.397-.26.383a21.05 21.05 0 00-1.408-.001c-.214.004-.316-.057-.377-.283-.372-1.353-.764-2.698-1.152-4.046-.179-.623-.361-1.247-.541-1.87-.064-.158-.096-.325-.145-.485-.268.192-.284.514-.4.784-.05.171-.141.325-.212.487l-.098.3c-.059.168-.139.326-.219.484l-2.056 5.144a580.12 580.12 0 00-.632-1.532c-.042-.177-.146-.33-.212-.496l-.033-.132c-.075-.16-.163-.316-.213-.487l-.962-2.42c-.058-.104-.091-.217-.142-.323l-.764-1.947c-.171.562-.323 1.038-.46 1.518-.387 1.365-.769 2.733-1.153 4.1-.088.313-.199.62-.264.94-.044.221-.16.267-.354.265-.471-.006-.942-.018-1.411.005-.305.014-.361-.108-.29-.368.23-.842.462-1.684.687-2.528.245-.919.485-1.838.726-2.758.118-.202.131-.437.206-.652l.11-.525a1.67 1.67 0 00.102-.424c0-.134.081-.244.105-.371.424-1.587.847-3.174 1.274-4.76.044-.163.099-.32.171-.55.612 1.49 1.198 2.914 1.78 4.339.399.975.788 1.954 1.182 2.932.066.19.158.369.23.556.091.2.184.397.299.649.293-.502.449-1.018.656-1.51.07-.1.103-.217.142-.33l1.893-4.618c.047-.111.085-.228.143-.334l.405-1.08c.078-.184.151-.372.245-.55.321.645.414 1.358.604 2.04.468 1.68.896 3.371 1.343 5.057.344 1.296.691 2.59 1.036 3.886.09.235.113.491.215.722l-.001-.003z" fill="#186840"/><path id="Vector_7" d="M55.531 6.696c0-1.925.007-3.848-.006-5.772-.002-.316.066-.448.408-.423.403.03.811.025 1.215 0 .304-.019.408.07.403.39-.017 1.257-.01 2.512-.005 3.769 0 .11-.062.264.065.32.111.05.213-.069.296-.14.278-.238.583-.433.908-.603 1.334-.699 2.015-1.844 2.165-3.31.04-.377.189-.443.515-.426.417.024.837.008 1.256.005.16 0 .274.01.263.228-.077 1.698-.665 3.176-1.899 4.366-.563.543-.566.521-.135 1.206 1.308 2.07 2.605 4.143 3.9 6.219.063.099.2.215.123.345-.066.114-.217.052-.33.054-.55.005-1.099.002-1.648.002-.223 0-.356-.08-.483-.3-.432-.742-.917-1.45-1.372-2.177-.496-.791-.98-1.59-1.474-2.383-.254-.408-.528-.806-.768-1.224-.126-.218-.21-.207-.374-.04-.666.675-.989 1.493-1.008 2.427a100.43 100.43 0 000 3.298c.005.306-.078.425-.398.406a10.75 10.75 0 00-1.254 0c-.306.018-.372-.107-.37-.386.009-1.95.004-3.901.004-5.851h.003z" fill="#186840"/><path id="Vector_8" d="M8.826 9.859c-.111-.37-.1-.753-.102-1.13-.004-2.618 0-5.233-.01-7.851 0-.283.056-.396.363-.375.43.028.864.028 1.293 0 .332-.02.349.147.349.403-.006 2.473-.006 4.946-.002 7.42 0 .585 0 1.168.319 1.705a2.326 2.326 0 002.487 1.08c.939-.205 1.673-1.006 1.775-1.953a7.52 7.52 0 00.032-.823c.001-2.473.008-4.946-.007-7.42-.001-.328.09-.434.418-.414.43.027.863.016 1.293.003.226-.008.325.044.325.299-.01 2.696.024 5.392-.019 8.086-.031 1.999-1.293 3.639-3.21 4.15-1.642.436-3.35-.068-4.492-1.52a3.928 3.928 0 01-.661-1.181c-.06-.157-.075-.329-.154-.48h.003z" fill="#186840"/><path id="Vector_9" d="M23.579 5.148c1.056.475 2.092.973 2.935 1.802 1.202 1.183 1.371 3.289.36 4.662-.97 1.313-2.322 1.665-3.86 1.535-.257-.022-.508-.1-.764-.15-.137-.048-.276-.089-.408-.147-1.36-.705-2.12-1.815-2.296-3.34-.029-.252.03-.329.273-.324.483.01.966.014 1.45-.001.234-.008.307.08.347.304.244 1.422 1.53 1.961 2.872 1.436 1.043-.408 1.169-2.001.303-2.752-.757-.655-1.677-1.006-2.541-1.466-.871-.464-1.623-1.053-2.036-1.995-.51-1.166-.143-2.715.8-3.56 1.515-1.357 4.057-1.207 5.267.546.354.512.57 1.072.649 1.69.031.246-.02.357-.3.345-.47-.022-.94-.013-1.411-.003-.206.004-.306-.024-.355-.275-.237-1.188-1.624-1.433-2.333-.886-.554.425-.612 1.275-.109 1.754.258.246.524.486.841.657.09.087.223.088.316.168z" fill="#186840"/><path id="Vector_10" d="M70.105.509c.993 0 1.986.008 2.98-.005.254-.003.347.066.331.327a8.56 8.56 0 000 1.098c.024.316-.055.423-.397.417-1.293-.022-2.588 0-3.881-.018-.314-.004-.403.088-.396.396.02.706.018 1.413 0 2.12-.006.284.07.388.372.382.94-.02 1.882.003 2.824-.013.28-.005.405.055.38.364-.029.338-.03.682 0 1.02.028.33-.11.39-.404.385-.915-.017-1.83.006-2.745-.013-.314-.006-.434.068-.428.409.02 1.11.017 2.223 0 3.335-.005.297.09.38.38.376 1.307-.014 2.614.003 3.92-.013.294-.003.392.079.374.374-.026.392-.02.786 0 1.177.01.248-.088.31-.32.308-2-.008-4-.01-5.999.003-.31.002-.364-.116-.362-.393.01-1.714-.005-3.426.014-5.14.003-.344-.085-.451-.435-.437-.672.028-.673.006-.673-.682 0-.052-.003-.105 0-.157.017-.284-.115-.635.056-.837.165-.195.518-.07.785-.065.301.006.257-.187.257-.366 0-1.321.01-2.643-.006-3.964-.003-.31.08-.4.392-.394.994.02 1.987.008 2.98.008V.509z" fill="#186840"/><path id="Vector_11" d="M17.988 19.757c.034-.29.282-.488.334-.769.48-.42 1.063-.652 1.639-.897.183-.078.33-.036.436.137.245.399.636.62 1.042.793.5.212.937.492 1.306.95-.178-.51-.534-.783-.948-1.002-.15-.078-.316-.136-.369-.323.01-.063.049-.1.105-.124.275 0 .366-.132.377-.409.023-.644.332-1.151.836-1.546.23-.222.476-.243.741-.064.053.036.11.069.162.108 1.11.822 1.17 1.235.775 2.421-.067.126-.14.25-.182.39-.132.43-.134.43-.47.124-.046-.044-.098-.085-.142-.133.226.296.39.631.566.958.062.154.093.317.138.476.013.162.077.325-.213.333-.179.005-.165.231-.196.377-.033.129-.126.215-.22.299-.124.12-.183.293-.31.411-.085.143-.168.288-.253.43-.115.233-.055.463.038.681.11.262.12.533.09.808-.009.088-.028.204-.14.204-.122 0-.17-.104-.18-.219a1.622 1.622 0 01-.001-.326c-.04.303.066.606-.005.91-.07.246-.116.497-.152.752-.044.32-.173.37-.438.188-.19-.13-.411-.253-.284-.55 0-.117.284-.238-.006-.351a.567.567 0 01-.098-.038c-.438-.335-.175.195-.3.243.192.31.236.696.51.96.013.087-.028.146-.095.192-.099.04-.19.006-.28-.035-.265-.15-.613-.165-.787-.47-.077-.073-.121-.172-.184-.255-.06-.074-.08-.172-.133-.245-.095.078.033.125.025.19.012.033.02.066.025.099.012.124.023.246.047.369.003.08-.014.15-.102.18a.286.286 0 01-.165-.056.603.603 0 01-.177-.242c-.091-.212-.108-.437-.105-.665.006-.34-.054-.67-.182-.988-.054-.143-.058-.302-.14-.454-.093.423.17.757.237 1.131.064.219.091.439.01.659-.117.149-.224.06-.322-.02-.107-.09-.201-.196-.333-.25-.074-.016-.146-.095-.22-.007.115.263.328.456.458.704l.005.056a.692.692 0 00-.017.054.264.264 0 01-.247.115.492.492 0 01-.288-.153.736.736 0 00-.286-.213.612.612 0 01-.088-.052 1.027 1.027 0 00-.339-.217.496.496 0 01-.248-.26c.044.034-.048 0-.008-.032.041-.033.007-.079-.004-.029-.02.101.042.176.084.258a.7.7 0 01.087.332.344.344 0 01-.07.223c-.034.018-.08.039-.11.015-.415-.353-.927-.573-1.335-.931-.164-.145-.263-.354-.325-.57-.16-.579-.49-1.025-1.023-1.313-.102-.055-.221-.108-.143-.263.11-.33.252-.648.357-.982.208-.665.996-.9 1.62-.505.137.088.252.214.38.32a.34.34 0 01.315.262c.043.152.04.31.036.465-.011.43-.013.859.215 1.21-.228-.451-.234-.95-.077-1.468.1-.328-.192-.581-.251-.885-.121-.493-.175-.988-.007-1.483l.002.007z" fill="#D0507F"/><path id="Vector_12" d="M28.665 18.748c.074.305.187.592.328.874.159.319.264.652.113 1.015-.083.2 0 .286.217.278a43.992 43.992 0 011.641-.046c.758-.003.887.173.733.922-.124.602-.227 1.207-.028 1.815.596 1.763-.39 3.193-1.82 3.823-.498.218-1.024.308-1.542.433-.025.003-.05.008-.077.007-.149-.01-.36.044-.408-.126-.05-.174.171-.223.288-.313.07-.055.145-.104.218-.157.086-.066.147-.157.213-.242a.785.785 0 00.152-.28c.18-.488.484-.886.87-1.23.243-.215.47-.267.71-.001.07.077.096.18.151.26-.055-.138-.078-.296-.174-.424-.132-.206-.042-.361.104-.52.265-.29.486-.61.573-1.005-.493.798-1.316 1.249-1.965 1.879-.143.07-.255.191-.402.254a2.59 2.59 0 00-.378.194c-.34.018-.22-.137-.112-.291.129-.13.287-.225.424-.347.055-.05.129-.074.185-.132a3.5 3.5 0 00-.588.251c-.685.2-1.411.27-2.015.7-.299.211-.605.41-.892.634-.125.099-.253.187-.422.178a.358.358 0 01-.168-.054c-.168-.215-.138-.382.126-.478.348-.127.49-.441.671-.722.073-.1.201-.18.107-.333-.05-.068-.077-.145-.031-.22.433-.723.557-1.568.916-2.322.394-.827.95-1.487 1.706-1.922-1.168.18-1.941.916-2.454 1.992-.253.53-.44 1.086-.675 1.622a.244.244 0 01-.192.099c-.064 0-.147-.096-.188.004-.046.117.12.137.141.233-.019.346-.147.655-.306.957-.124.08-.235.085-.326-.05-.046-.294.072-.593-.033-.885a1.426 1.426 0 01-.047-.11c-.189-.242-.093-.51-.068-.768.138-.74.342-1.47.327-2.234-.005-.233.084-.46.186-.673.316-.661.501-1.367.688-2.07.096-.356.245-.682.45-.987.09-.091.165-.198.284-.255.45-.09.903-.07 1.355-.003.05.008.102.04.15.035.617-.077.989.267 1.287.741h-.003z" fill="#D0507F"/><path id="Vector_13" d="M84.426.509c1.006 0 2.012.01 3.018-.007.29-.004.352.106.339.365-.019.378-.022.759 0 1.137.017.275-.07.354-.347.35-1.32-.013-2.64.004-3.96-.013-.298-.005-.376.08-.367.37.02.718.02 1.44 0 2.158-.007.282.052.377.358.37.992-.022 1.987 0 2.979-.014.28-.005.403.05.378.362a7.7 7.7 0 00-.001 1.058c.017.291-.08.387-.377.382-.954-.017-1.909.011-2.861-.015-.366-.011-.485.066-.479.46.025 1.687.003 3.375.018 5.062.003.299-.06.424-.387.4a9.27 9.27 0 00-1.253 0c-.341.024-.41-.11-.407-.425.014-1.688-.003-3.375.016-5.062.003-.346-.085-.45-.433-.435-.597.025-.545.092-.548-.532-.002-.314.012-.628-.005-.94-.012-.23.043-.316.297-.315.68.003.68-.01.68-.697 0-1.216.01-2.433-.005-3.65-.004-.29.069-.384.368-.377.994.019 1.987.006 2.98.006V.51z" fill="#186840"/><path id="Vector_14" d="M135.078.509c-.209.521-.504.92-.754 1.343-.979 1.654-1.975 3.3-2.972 4.944a.95.95 0 00-.127.519c.003 1.727-.006 3.453.009 5.18.003.33-.056.473-.422.441a9.825 9.825 0 00-1.254-.003c-.273.011-.359-.085-.358-.361.011-1.7-.014-3.402.019-5.102.01-.461-.188-.8-.4-1.154-1.097-1.824-2.199-3.645-3.299-5.468-.053-.088-.151-.179-.107-.281.052-.12.186-.054.28-.055.562-.006 1.123 0 1.685-.005.182-.001.305.033.41.215.749 1.308 1.513 2.605 2.272 3.906.104.178.181.231.313.005.745-1.274 1.511-2.537 2.252-3.816.13-.225.267-.318.521-.311.626.014 1.254.004 1.93.004l.002-.001z" fill="#186840"/><path id="Vector_15" d="M33.71 7.659c0 1.634-.008 3.27.007 4.903.003.297-.084.389-.376.371-.417-.023-.836-.02-1.254 0-.292.013-.383-.09-.38-.383.01-1.805.004-3.609.004-5.414 0-1.465-.006-2.929.005-4.395.003-.298-.071-.41-.394-.4-.835.023-1.673 0-2.508.012-.231.003-.328-.053-.316-.303.02-.391.025-.786 0-1.177-.019-.3.085-.372.375-.37 1.712.012 3.423.006 5.135.006.876 0 1.752.006 2.626-.005.215-.003.303.05.293.281a16.2 16.2 0 000 1.295c.011.24-.09.275-.298.273-.836-.01-1.673.01-2.508-.01-.321-.009-.423.081-.42.414.017 1.634.008 3.27.008 4.904l.001-.002z" fill="#186840"/><path id="Vector_16" d="M4.264 13.004c-2.205.594-4.13-.737-4.243-3.068-.011-.223.055-.3.282-.29.444.015.89.02 1.333 0 .302-.015.414.09.433.393.034.568.312.915.755 1.01.941.205 1.334-.103 1.476-1.18.033-.244.029-.496.03-.744.002-2.721.011-5.442-.01-8.164C4.319.57 4.43.47 4.8.5c.415.033.836.017 1.253.004.225-.006.294.077.292.297-.006 2.879.008 5.757-.015 8.635-.008.905-.18 1.787-.724 2.558-.254.361-.582.622-.945.851-.125.073-.27.093-.398.16h.001z" fill="#186840"/><path id="Vector_17" d="M120.086 6.7c0-1.935.007-3.87-.006-5.806-.001-.316.091-.41.4-.391A8.79 8.79 0 00121.734.5c.363-.031.364.159.364.423-.004 3.203-.004 6.408-.001 9.612 0 .586-.066.521.521.523.81.003 1.619.008 2.431-.003.248-.003.356.063.345.33-.017.405-.016.81 0 1.216.008.234-.071.331-.311.33a589.821 589.821 0 00-4.703 0c-.303.001-.29-.178-.29-.385V6.7h-.004z" fill="#186840"/><path id="Vector_18" d="M42.947 6.7c0-1.937.008-3.872-.007-5.81-.002-.31.078-.41.39-.39a8.25 8.25 0 001.215 0c.366-.03.428.115.425.447-.014 2.08-.008 4.16-.008 6.242 0 1.14.02 2.277-.009 3.416-.01.394.118.477.485.465.81-.029 1.621.006 2.431-.016.306-.01.381.094.364.379-.022.378-.025.76 0 1.137.02.306-.097.37-.381.366a215.284 215.284 0 00-4.51.002c-.343.005-.406-.113-.402-.426.012-1.937.006-3.873.006-5.81l.001-.002z" fill="#186840"/><path id="Vector_19" d="M117.561 6.721c0 1.921-.011 3.845.01 5.766.004.379-.118.468-.463.446-.416-.027-.837-.014-1.254-.003-.222.006-.327-.042-.327-.3.008-3.95.008-7.898 0-11.848 0-.239.096-.283.302-.278.456.011.915.022 1.371-.003.3-.017.369.085.368.374-.013 1.948-.007 3.896-.007 5.844v.002z" fill="#186840"/><path id="Vector_20" d="M50.495 6.682c0-1.936.006-3.871-.007-5.809-.001-.295.079-.388.372-.372.443.024.89.03 1.333 0 .339-.025.34.148.34.397-.006 2.891-.003 5.782-.003 8.673 0 1.007-.008 2.014.005 3.021.003.252-.065.35-.328.34-.457-.02-.915-.02-1.372 0-.285.012-.347-.1-.345-.365.01-1.962.005-3.924.005-5.887v.002z" fill="#186840"/><path id="Vector_21" d="M32.28 25.02c.318.42.36.948.558 1.413.042.144-.033.253-.113.358-.468.61-.697 1.335-1.02 2.019-.565 1.194-1.255 2.297-2.599 2.767-.79.274-1.536.24-2.19-.354-.098-.12-.255-.207-.222-.4.078-.098.19-.133.306-.155.152-.02.303-.042.444.055.154.106.312.096.468-.004.086-.05.161-.104.149-.22 0-.052.012-.1.04-.143.169-.117.24-.27.183-.475-.068-.179-.041-.355.018-.53a.513.513 0 01.093-.137c.37-.24.614-.627.992-.86a.33.33 0 01.212.083c.2.27.177.622.372.953.01-.305 0-.566.008-.827.017-.696.24-1.291.808-1.74.537-.422 1.01-.898 1.222-1.58.036-.116.093-.254.269-.223h.003z" fill="#D0507F"/><path id="Vector_22" d="M15.892 27.91c-.335-.628-.746-1.223-.714-1.984.017-.397.156-.73.467-.985.207-.215.39-.21.556.054.304.479.811.615 1.315.741.323.08.609.208.833.457.08.115.154.236.254.335.098.118.219.21.324.322.114.132.202.281.277.438a.17.17 0 01-.015.104.296.296 0 01-.14.076c-.128.048-.235-.03-.35-.058-.179-.02-.356-.034-.513.08-.21.09-.384.223-.515.413-.094.265-.298.448-.483.646-.173.155-.344.31-.604.254-.201-.025-.264-.207-.379-.33-.119-.168-.032-.262.123-.319.182-.066.351-.162.527-.232-.01-.005.038-.005 0-.01-.02-.003-.047.02-.072.03-.303.075-.604.197-.895-.031l.004-.002z" fill="#D0507F"/><path id="Vector_23" d="M26.954 31.14c1.004.95 2.708.397 3.553-.63.618-.753 1.112-1.564 1.421-2.49.195-.587.58-1.074.91-1.587.478.53.49.666.004 1.126-.554.523-.874 1.193-1.17 1.865-.46 1.04-1.24 1.74-2.212 2.262-.402.217-.812.409-1.331.288.26.903-.403 1.27-.957 1.67a2.051 2.051 0 00-.74.97c-.13.336-.287.39-.533.149-.201-.195-.457-.16-.686-.234-.099-.032-.213-.011-.229-.156-.323-.099-.03-.22-.014-.331a1.821 1.821 0 01-.455-.806c-.025-.106-.054-.212.06-.277.1-.056.17.028.243.079.14.099.23.245.343.37.19.216.397.415.667.528a.61.61 0 01.375.413c.162-.089.065-.241.091-.36-.04-.419.192-.753.354-1.1.23-.49.348-.976.163-1.506a.302.302 0 01.001-.154c.027-.063.061-.111.142-.09z" fill="#F8C5D7"/><path id="Vector_24" d="M18.781 27.3c.074.047.126.162.242.078.084.146-.011.2-.123.253.21-.105.411.079.622.02.265.137.488.335.744.488.092.055.177.143.161.248-.081.545.162 1.004.367 1.474-.014.213-.19.284-.334.385a.55.55 0 01-.107.037c-.095.024-.19.003-.3 0 .219.17.385.382.62.517.1.057.236.135.133.3-.076.01-.15.02-.222-.017-.68-.3-1.238-.78-1.81-1.238a4.543 4.543 0 00-.775-.503c-.12-.077-.119-.158.007-.22a.666.666 0 00.301-.322c.154-.31-.078-.608-.03-.914.038-.107.159-.137.212-.23.096-.119.182-.245.289-.355l.003-.001z" fill="#D0507F"/><path id="Vector_25" d="M18.32 26.277c-.34-.395-.837-.457-1.29-.583-.379-.104-.667-.299-.868-.608-.148-.228-.292-.278-.515-.145.298-.458.15-.785-.408-.876-.126-.02-.141-.096-.141-.192-.003-.38.09-.735.304-1.053.016.06.014.126.094.154.61.208.947.682 1.12 1.257.139.454.373.8.795.995.35.162.625.413.905.663a.34.34 0 01.17.289c.008.12-.047.171-.166.1v-.001z" fill="#F8C5D7"/><path id="Vector_26" d="M29.364 28.385c-.256.35-.541.665-.923.882-.12.033-.119-.054-.127-.13.025-.115.1-.203.159-.3.238-.302.375-.678.635-.923-.083.047-.202.112-.343.049-.14-.145-.343.012-.49-.098-.022-.031-.024-.063 0-.095.799-.18 1.6-.348 2.27-.874 1.018-.801 1.423-1.82 1.13-3.098-.015-.061-.007-.13-.009-.193a.546.546 0 01.146.35c.038.407.08.812.468 1.064-.124.03-.144.136-.174.237-.203.68-.64 1.172-1.202 1.585-.56.412-.812 1-.837 1.687-.01.313 0 .627-.005.942 0 .078-.009.17-.114.17-.112.002-.091-.097-.112-.169-.097-.335-.199-.666-.3-1-.05-.043-.068-.15-.174-.087l.002.001z" fill="#F7C3D5"/><path id="Vector_27" d="M25.135 34.054c.132.176-.03.152-.113.152-.259.003-.045.109-.039.168l-.31-.012c-.169-.201-.443-.1-.638-.227-.198.096-.352-.05-.508-.114-.74-.302-1.424-.676-1.841-1.41-.236-.414-.408-.824-.234-1.305.048-.057.012-.138.055-.198.086-.116.165-.24.268-.344.248-.135.436.01.59.165.171.168.024.336-.067.493-.34.583-.253 1.12.29 1.518.422.308.85.608 1.292.89.09.056.182.114.289.11.328-.009.643.08.965.115l.001-.001z" fill="#F8C5D6"/><path id="Vector_28" d="M21.461 18.657c.267.159.548.297.796.48.345.257.627.568.555 1.079-.4-.742-1.156-.962-1.819-1.32-.263-.143-.513-.314-.65-.599-.087-.179-.197-.187-.38-.117-.575.216-1.08.567-1.64.807.453-.732 1.24-.936 1.966-1.232.141-.058.204.079.293.146.203.154.34.404.628.434l.044.028c.072.096.149.187.207.293v.001z" fill="#F7C3D5"/><path id="Vector_29" d="M24.35 19.035c.037-.163.057-.331.11-.49.256-.77-.02-1.17-.555-1.626a6.93 6.93 0 00-.719-.523c-.246-.16-.212.244-.4.215-.032-.022-.077-.028-.085-.077.374-.45.521-.452.973-.094.382.3.749.693 1.319.413.03.113-.044.162-.123.21-.045.02-.093.032-.138.05-.067.028-.072.08-.049.14.047.093.105.177.16.263.176.296.277.607.212.955-.048.194-.149.362-.246.533-.17.18-.173.51-.5.544-.183-.187-.023-.346.042-.512z" fill="#F3C0D1"/><path id="Vector_30" d="M18.384 28.861c-.092.156-.133.368-.387.343l.005.137a8.41 8.41 0 00-1.416-.54c.204-.071.395-.167.552-.321.331-.08.53-.26.463-.63.153-.178.26-.418.554-.393.151-.002.275.047.352.185-.066.272-.345.165-.5.282-.222.274.013.388.192.491.19.11.306.222.182.448l.003-.002z" fill="#F6C3D5"/><path id="Vector_31" d="M22.7 16.536l.085.077c-.487.5-.838 1.054-.804 1.8.019.424-.3.093-.447.159a.457.457 0 01-.314-.222l-.011-.014c.152-.628.523-1.117.98-1.552.145-.14.299-.251.51-.248z" fill="#F7C4D6"/><path id="Vector_32" d="M24.79 17.02l.203-.167c.047 0 .093-.003.14-.005.127-.043.176.046.227.133.035.089.055.183.095.271a.74.74 0 01.012.663c-.061.117-.012.252-.06.371-.086.134-.181.253-.36.256-.046-.008-.068-.034-.063-.08.022-.354-.1-.672-.245-.985-.05-.16-.115-.324.052-.459v.002z" fill="#85A748"/><path id="Vector_33" d="M28.665 18.748c-.17.003-.295.008-.338-.237-.047-.267-.298-.358-.566-.387a17.107 17.107 0 00-1.902-.105l-.011-.052c.18-.28.49-.228.751-.3.054-.04.102-.083.159-.118a.093.093 0 01.093.01c.04.072-.074.229.06.226.332-.006.611.198.953.176.58-.038.774.182.802.789l-.001-.002z" fill="#F0C0CF"/><path id="Vector_34" d="M25.691 16.687a.905.905 0 01.443-.164c.317.09.205.334.16.52-.05.206-.218.362-.386.47-.244.159-.233-.143-.342-.234a.508.508 0 01-.041-.125c-.028-.186-.013-.356.166-.469v.002z" fill="#8AA94E"/><path id="Vector_35" d="M17.99 21.898l-.236-.243c.22-.12.162-.286.096-.472-.173-.493-.095-.969.136-1.426-.064.504.032 1 .091 1.496-.042.213.127.455-.086.647v-.002z" fill="#EEBCCE"/><path id="Vector_36" d="M26.775 16.337c.091-.008.182-.027.271-.02.096.007.242-.048.275.076.036.145-.11.182-.216.23-.272.075-.379.46-.729.39-.088-.131-.052-.266-.01-.4.06-.204.225-.255.409-.276z" fill="#868962"/><path id="Vector_37" d="M16.975 27.922c-.184.14-.378.271-.606.314-.158.03-.186.102-.161.234-.184-.143-.228-.366-.317-.56.339.068.665-.02.995-.078.078-.02.102.017.09.09z" fill="#F3BFD1"/><path id="Vector_38" d="M25.623 17.246c.106.046.128.151.179.264.233-.3.665-.507.332-.987l.209-.108c.053.025.083.065.072.127-.047.168-.105.335-.023.51.069.089-.043.144-.044.22-.02.081-.087.123-.146.17-.047.037-.098.071-.145.109-.047.044-.083.097-.122.146-.093.093-.187.184-.334.115a.225.225 0 01-.057-.104c.008-.157-.073-.33.079-.463v.001z" fill="#90A663"/><path id="Vector_39" d="M97.012 12.768c.108.104.235.14.387.139.492-.008.981-.007 1.472 0 .157 0 .29-.007.266-.217.216.171.165.303-.085.313-.598.02-1.196.009-1.794.006-.15 0-.245-.075-.246-.239v-.002z" fill="#186840"/><path id="Vector_40" d="M26.317 17.25c-.083-.1.093-.1.07-.177-.02-.017-.023-.031-.013-.042.008-.011.016-.016.025-.016.28-.05.337-.501.706-.393.022.102-.048.162-.106.228-.145.184-.214.456-.521.45a.19.19 0 01-.159-.05h-.002z" fill="#8AA94E"/><path id="Vector_41" d="M20.586 31.082l.221-.016c.057-.104.093-.22.184-.302.092-.11.174-.23.317-.284.08-.013.144.01.179.091.023.137-.077.236-.113.353a.604.604 0 01-.115.178c-.069.094-.187.079-.278.127-.114-.094-.288-.028-.395-.144v-.003z" fill="#F4C0D2"/><path id="Vector_42" d="M25.691 16.687c-.084.149-.086.31-.083.476-.05.05-.024.132-.074.182-.086.022-.116-.049-.16-.098-.086-.06-.08-.144-.064-.23.06-.09.003-.167-.027-.247.096-.226.273-.05.407-.083h.001z" fill="#9C9578"/><path id="Vector_43" d="M26.474 17.246c.24-.045.344-.272.524-.396-.017.107-.114.193-.083.313.093.138-.04.157-.111.209-.129.008-.245-.02-.331-.126h.001z" fill="#91A75B"/><path id="Vector_44" d="M53.294 32.802c-.206-.201-.178-.47-.214-.721.15.216.2.463.214.72z" fill="#D0507F"/><path id="Vector_45" d="M51.883 27.537c-.224-.195-.163-.476-.213-.723.15.217.187.469.213.723z" fill="#D0507F"/><path id="Vector_46" d="M24.035 34.134c.2.027.398.047.596.08.102.016.05.092.04.148-.198-.116-.47-.025-.638-.226l.002-.002z" fill="#F8C5D7"/><path id="Vector_47" d="M20.982 31.226c.072-.053.146-.107.218-.162.088 0 .176-.014.26.022a.16.16 0 01.076.073c-.006.06-.024.116-.085.146-.131-.173-.336.077-.47-.079h.001z" fill="#E5A9BF"/><path id="Vector_48" d="M113.244 11.758a1.357 1.357 0 01-.215-.723c.175.21.181.472.215.723z" fill="#186840"/><path id="Vector_49" d="M26.39 16.538a3.593 3.593 0 00-.048-.121c.122-.145.28-.091.431-.08-.103.092-.279.097-.32.264-.064.021-.094.01-.064-.063h.001z" fill="#CD718D"/><path id="Vector_50" d="M101.311 6.628c-.009.236-.019.472-.206.652.038-.227.048-.463.206-.652z" fill="#186840"/><path id="Vector_51" d="M41.23 29.647a.87.87 0 01.229.56c-.143-.16-.242-.337-.23-.56z" fill="#D0507F"/><path id="Vector_52" d="M106.266 7.826c-.139-.16-.238-.337-.23-.556.124.166.227.34.23.556z" fill="#186840"/><path id="Vector_53" d="M81.086 15.994c-.163.13-.337.232-.557.226.16-.138.34-.228.557-.226z" fill="#E5A4BD"/><path id="Vector_54" d="M25.285 16.769c.08.009.158.025.157.13 0 .082-.066.1-.13.116l-.181-.166.154-.08z" fill="#81885E"/><path id="Vector_55" d="M110.048.053a1.11 1.11 0 01-.245.55c0-.218.077-.405.245-.55z" fill="#186840"/><path id="Vector_56" d="M39.192 24.469c.12.143.216.295.213.491a.638.638 0 01-.213-.491z" fill="#D0507F"/><path id="Vector_57" d="M105.492 10.796c.129.137.19.304.213.487a.54.54 0 01-.213-.487z" fill="#186840"/><path id="Vector_58" d="M101.557 5.695c.016.156.02.308-.135.407-.014-.137-.028-.273.074-.388.009-.04.03-.049.062-.02l-.001.001z" fill="#186840"/><path id="Vector_59" d="M101.631 19.46a.62.62 0 01-.225-.486c.127.138.218.292.225.486z" fill="#D0507F"/><path id="Vector_60" d="M40.276 20.079c-.168-.12-.19-.303-.216-.486.154.126.194.302.216.486z" fill="#D0507F"/><path id="Vector_61" d="M105.738 11.414c.127.142.22.299.212.497a.73.73 0 01-.212-.497z" fill="#186840"/><path id="Vector_62" d="M96.147 23.056a.61.61 0 01-.223.486c.008-.194.097-.348.223-.486z" fill="#D0507F"/><path id="Vector_63" d="M108.639 8.3a.9.9 0 01.218-.484.536.536 0 01-.218.484z" fill="#186840"/><path id="Vector_64" d="M91.82 3.577a.864.864 0 01-.221.478.537.537 0 01.221-.478z" fill="#186840"/><path id="Vector_65" d="M47.58 24.707a.49.49 0 01.137-.39c.079-.082.09.018.094.08l-.23.31z" fill="#D0507F"/><path id="Vector_66" d="M108.955 7.516a.843.843 0 01.212-.487.557.557 0 01-.212.487z" fill="#186840"/><path id="Vector_67" d="M38.952 24.555c.006-.113-.063-.267.114-.3.09-.017.113.072.108.154-.127-.033-.152.091-.22.146h-.002z" fill="#D0507F"/><path id="Vector_68" d="M109.567 6.245c.101.146.17.3.145.484a.547.547 0 01-.145-.484z" fill="#186840"/><path id="Vector_69" d="M26.777 17.323c.078-.025.128-.076.14-.16.238.174-.145.246-.067.394l-.031-.013c-.104-.058-.096-.135-.042-.223v.002z" fill="#C97D91"/><path id="Vector_70" d="M48.212 25.724c.102.144.165.3.143.48a.553.553 0 01-.143-.48z" fill="#D0507F"/><path id="Vector_71" d="M95.615 31.31a.566.566 0 01.206-.414.47.47 0 01-.206.413z" fill="#D0507F"/><path id="Vector_72" d="M8.826 9.858a.558.558 0 01.154.48c-.102-.143-.176-.296-.154-.48z" fill="#186840"/><path id="Vector_73" d="M97.86 9.804a.575.575 0 01-.206-.417c.14.104.208.244.206.417z" fill="#186840"/><path id="Vector_74" d="M4.264 13.004c.117-.088.243-.162.398-.159a.382.382 0 01-.398.159z" fill="#186840"/><path id="Vector_75" d="M21.84 12.85c.158-.014.285.06.408.148-.167.036-.3-.02-.408-.148z" fill="#186840"/><path id="Vector_76" d="M41.706 23.6c-.135-.096-.17-.233-.164-.389a.492.492 0 01.164.389z" fill="#D0507F"/><path id="Vector_77" d="M121.569 19.292a.522.522 0 01-.163-.393c.137.096.178.232.163.393z" fill="#D0507F"/><path id="Vector_78" d="M101.557 5.695a.306.306 0 00-.063.02c-.034-.161.025-.293.135-.408.041.142-.047.26-.072.388z" fill="#186840"/><path id="Vector_79" d="M40.666 28.169c.132.097.171.234.162.39a.484.484 0 01-.162-.39z" fill="#D0507F"/><path id="Vector_80" d="M106.263 29.894c-.127-.07-.163-.183-.149-.32.101.084.16.184.149.32z" fill="#D0507F"/><path id="Vector_81" d="M86.66 30.916c-.07.123-.183.16-.316.162.074-.116.183-.162.317-.162z" fill="#D0507F"/><path id="Vector_82" d="M23.58 5.149c-.137.003-.249-.043-.316-.169.13.01.243.052.315.169z" fill="#186840"/><path id="Vector_83" d="M107.362 6.635c.025.141-.016.254-.143.33-.015-.137.047-.24.143-.33z" fill="#186840"/><path id="Vector_84" d="M75.507 21.165c.01.133-.052.237-.146.325a.313.313 0 01.146-.325z" fill="#D0507F"/><path id="Vector_85" d="M103.757 31.383c.105.08.162.185.152.32-.125-.072-.16-.185-.152-.32z" fill="#D0507F"/><path id="Vector_86" d="M109.399 1.683c.02.141-.042.245-.143.334a.34.34 0 01.143-.334z" fill="#186840"/><path id="Vector_87" d="M103.208 30.205c.11.078.157.187.154.319-.126-.071-.161-.184-.154-.32z" fill="#D0507F"/><path id="Vector_88" d="M104.389 8.053c.092.088.158.189.141.324-.127-.074-.163-.186-.141-.324z" fill="#186840"/><path id="Vector_89" d="M123.495 33.961c-.262-.355-.505-.724-.76-1.085-1.487-2.101-2.978-4.202-4.466-6.302-.331-.469-.328-.467.227-.69.633-.255 1.232-.577 1.73-1.045 1.645-1.554 2.012-3.426 1.343-5.546-.07-.124-.081-.273-.163-.393a4.788 4.788 0 00-1.135-1.475c-1.061-.962-2.347-1.403-3.747-1.433-2.13-.047-4.261-.01-6.392-.02-.263 0-.332.085-.328.336.012.863.004 1.727.004 2.59 0 4.96.005 9.918-.009 14.876 0 .373.11.465.461.453a29.504 29.504 0 012.078 0c.342.01.451-.096.449-.445-.005-1.046-.033-2.091.056-3.137.107-1.24.558-2.263 1.648-2.948.626-.394.619-.407 1.063.207.099.139.198.275.296.414 1.348 1.902 2.698 3.803 4.045 5.708.081.114.168.193.315.193h3.177c.235 0 .233-.085.108-.256v-.002zm-8.823-9.791c-.099.066-.218.086-.319.15a7.342 7.342 0 00-1.229.675c-.197.133-.348.174-.346-.172.009-1.855.004-3.71.003-5.566 0-.203.017-.358.288-.349 1.251.044 2.507-.096 3.753.087.61.09 1.199.276 1.621.77.816.955.402 2.628-.774 3.189-.976.465-1.999.807-2.997 1.214v.002z" fill="#D0507F"/><path id="Vector_90" d="M114.354 24.318a.339.339 0 01.318-.15c-.071.126-.185.157-.318.15z" fill="#D0507F"/><path id="Vector_91" d="M108.017 33.801c-.583-1.303-1.169-2.605-1.754-3.907-.075-.095-.097-.214-.149-.32-.448-1.017-.893-2.034-1.341-3.052a.324.324 0 01-.149-.325l-1.018-2.277a.35.35 0 01-.149-.319l-.953-2.114c-.099-.087-.158-.19-.147-.327l-.724-1.703a3.086 3.086 0 01-.224-.486l-1.725-3.774c-.42.926-.796 1.74-1.163 2.558-.793 1.766-1.582 3.534-2.373 5.3-.056.17-.136.33-.223.485-.397.903-.79 1.81-1.192 2.712-.729 1.64-1.46 3.279-2.193 4.916-.41.914-.825 1.824-1.237 2.737-.076.17-.122.319.175.314.861-.011 1.723-.006 2.583-.003.18 0 .289-.079.36-.24.396-.892.796-1.78 1.195-2.67.058-.143.148-.27.206-.413.122-.286.263-.567.364-.863.095-.283.262-.366.554-.364 1.88.012 3.76.022 5.64-.005.443-.006.727.093.827.542.063.1.08.223.154.319l.396.86c.064.1.081.223.152.32.332.732.668 1.463.995 2.198.102.23.251.327.513.32.781-.015 1.563-.004 2.345-.006.411 0 .428-.026.254-.416l.001.003zm-6.528-6.73c-1.201-.012-2.403-.004-3.604-.005-.15 0-.356.04-.232-.23l2.032-4.44c.272.585.492 1.053.707 1.523.433.947.86 1.896 1.298 2.84.105.226.084.316-.198.313h-.003z" fill="#D0507F"/><path id="Vector_92" d="M102.354 21.163c.067.1.094.22.147.327a.33.33 0 00-.147-.327z" fill="#D0507F"/><path id="Vector_93" d="M102.502 21.49c-.053-.107-.081-.225-.147-.327-.011.137.048.24.147.327z" fill="#D0507F"/><path id="Vector_94" d="M103.455 23.603c.069.097.09.217.149.319.011-.135-.023-.248-.149-.319z" fill="#D0507F"/><path id="Vector_95" d="M103.603 23.922c-.059-.1-.08-.222-.149-.319a.353.353 0 00.149.319z" fill="#D0507F"/><path id="Vector_96" d="M104.623 26.198c.049.109.079.226.149.325a.376.376 0 00-.149-.325z" fill="#D0507F"/><path id="Vector_97" d="M104.773 26.522c-.071-.099-.101-.215-.149-.325a.323.323 0 00.149.325z" fill="#D0507F"/><path id="Vector_98" d="M99.136 12.688c-.426-.961-.85-1.923-1.275-2.884-.056-.145-.149-.272-.205-.418l-1.312-2.948-2.25-5.037c-.131-.108-.181-.257-.205-.42-.09-.208-.168-.425-.276-.623-.052-.094-.011-.27-.155-.278-.168-.01-.107.207-.212.278.003.2-.094.352-.225.49l-1.2 2.728a5.04 5.04 0 00-.222.477c-.208.476-.416.952-.627 1.427-.63 1.414-1.259 2.826-1.891 4.24-.424.95-.85 1.9-1.281 2.846-.118.257-.097.377.23.364.484-.02.967-.012 1.45 0 .213.005.324-.064.412-.267.36-.836.74-1.664 1.116-2.492.074-.162.125-.323.376-.32 1.36.014 2.72.008 4.08.003.148 0 .246.04.308.179.412.913.826 1.824 1.24 2.735.072.117.159.2.311.198.548-.003 1.095 0 1.643-.001.209 0 .248-.102.17-.277zm-4.572-4.624c-.378-.006-.756-.001-1.135-.001-.378 0-.73-.008-1.095.003-.253.008-.331-.047-.207-.31.41-.868.8-1.745 1.196-2.619.026-.06.036-.133.114-.138.08-.005.094.063.121.126.395.887.783 1.78 1.197 2.658.124.264.026.286-.193.281h.002z" fill="#186840"/><path id="Vector_99" d="M93.02.852c.081-.16.164-.321.224-.49-.127.14-.225.293-.225.49z" fill="#186840"/><path id="Vector_100" d="M93.02.852c.13-.139.227-.293.224-.49-.06.17-.143.33-.225.49z" fill="#186840"/><path id="Vector_101" d="M94.093 1.403c.012-.18-.068-.313-.204-.42.056.147.152.272.204.42z" fill="#186840"/><path id="Vector_102" d="M94.093 1.403c-.052-.148-.15-.273-.204-.42.023.162.073.31.204.42z" fill="#186840"/><path id="Vector_103" d="M28.27 27.845c.147.094.363-.247.475.075l-.04.047c-.337.147-.71.147-1.054.263-.174.038-.353.047-.526.091-.204.027-.413.04-.598.143-.15.068-.248.217-.398.272.288.02.557.152.831.259.052.016.102.035.153.057.205.102.41.212.627.287.033.013.063.03.093.05.08.068.133.16.22.22.102.08.194.17.218.307a.49.49 0 01-.115.374c-.1.055-.166.158-.274.206-.269.147-.586.131-.862.252-.1.03-.202.062-.303.091-.086.093-.213.103-.315.164-.502.237-1.042.349-1.576.485-.166-.001-.336.022-.497-.042a.143.143 0 01-.077-.093c0-.064.031-.114.077-.157.811-.26 1.341-.86 1.834-1.508.16-.273-.116-.126-.179-.184-.504-.1-1.007-.027-1.51-.01-.073-.021-.12-.08-.169-.136.025.046.072.07.09.12-.296.3-1.055.381-1.386.15-.022-.11.223-.217.012-.327-.168-.09-.26.02-.33.158-.418.108-.754-.133-1.109-.28-.315-.13-.413-.07-.408.275.003.223.124.427.104.655a.18.18 0 01-.104.13c-.238.002-.345-.152-.416-.35-.276-.44-.541-.883-.398-1.442.037-.146-.082-.19-.18-.258-.236-.157-.46-.33-.69-.495-.052-.025-.1-.055-.114-.118-.007-.088.036-.143.117-.17.283-.007.488.195.735.282.063-.09.03-.189.066-.269.067-.122.1-.243-.005-.364-.072-.159-.192-.305-.135-.498.107-.074.107-.18.088-.293a.147.147 0 01.047-.09c.157-.027.217-.164.301-.273l.091.057c.174.022.11-.067.068-.146-.098-.118-.068-.256-.066-.391.104-.029.138.066.2.113.048.056.103.085.175.055.187.287.55.28.791.473-.082.212-.264.317-.444.424-.173.07-.113.22-.115.347.018.085.046.168.07.25.045.295.184.537.415.726a.458.458 0 01.182.29c-.014.126.083.178.162.24a.604.604 0 00.326.098c.3.027.565.154.826.293.058.293.163-.052.238.014a.75.75 0 01.256-.041.733.733 0 01.102.003c.049.003.1.012.146.019.123-.008.195-.109.292-.16a.23.23 0 01.15-.043c.151.132.189.341.4.457.235.13.155-.073.214-.128.123-.015.25-.016.34-.12.042-.027.094-.042.12-.09-.077-.026-.09.056-.138.08-.122.163-.32.096-.477.153-.215-.02-.287-.182-.35-.353.33-.374.264-.806.18-1.24-.028-.066-.06-.134 0-.201.434-.102.736-.43 1.068-.682.689-.525 1.486-.685 2.299-.83.2-.098.338-.091.416.02-.091.16-.262.22-.4.321-.274.311-.661.447-.997.662-.292.118-.504.352-.752.532a.234.234 0 01-.262-.003c-.12-.107-.05-.265-.102-.413-.105.171-.022.278.072.383.07.128-.092.233-.034.365.135-.083.204-.23.33-.316.282-.165.445-.542.855-.484.031.022.05.054.052.093-.088.182-.24.313-.366.462-.18.23-.385.444-.542.694-.164.07-.354.013-.535.12.26.122.43-.06.622-.139.199-.06.405-.033.607-.042.063 0 .124.003.187.003.17.014.332-.038.5-.036.165.064.347-.019.51.06l-.003-.005z" fill="#F8C5D7"/><path id="Vector_104" d="M25.686 18.256c-.271.402-.431.853-.527 1.323-.155.765-.541 1.45-.745 2.197-.145.527-.023 1.088-.194 1.618-.086.269-.123.553-.183.831-.047.134-.104.264-.135.404-.251-.005-.31-.239-.45-.376a.489.489 0 01-.043-.113c-.033-.224-.022-.45-.014-.674.049-.212.064-.432.159-.633.122-.2.155-.437.254-.643.096-.2-.03-.245-.168-.295-.024-.035-.022-.066.01-.094l.235-.236c.136-.196.425-.27.447-.56.023-.22.172-.406.182-.632.05-.206.096-.412.171-.61.061-.14.129-.278.116-.438-.026-.269.074-.506.178-.742a.814.814 0 00.437-.33.212.212 0 01.1-.132c.128-.044.235-.061.172.135h-.002z" fill="#F8C4D6"/><path id="Vector_105" d="M22.858 24.769v-1.023c.248.135.118.409.242.59.118-.365.099-.55-.017-.885-.1-.286-.255-.586.02-.87.377-.018.204.318.306.477.057.383-.075.778.063 1.156l.022.027c.01.141-.046.278-.03.42-.023.067-.06.133-.047.21.008-.088.027-.167.133-.185.109.034.201.09.273.18-.055.349.164.684.05 1.034-.045.126-.181.201-.19.347a.125.125 0 01-.068.07c-.126.03-.234-.021-.344-.07-.058-.031-.107-.081-.177-.09-.214-.003-.262-.178-.34-.323-.059-.364.07-.712.104-1.067v.002z" fill="#F7C5D6"/><path id="Vector_106" d="M21.296 27.064c-.094-.056-.069-.154-.083-.239.04-.135.03-.292.162-.39.066-.24.326-.236.47-.378.082 0 .14.102.233.057.103-.013.168-.087.243-.15.198.018.141.17.154.288-.082.446-.375.765-.666 1.084-.245.118-.416.027-.515-.273l.002.001z" fill="#FCF5F7"/><path id="Vector_107" d="M18.311 25.103l.24.236c.116.066.201.177.328.226a.12.12 0 01.065.017c.072.118.215.137.309.223l.24.181c.129.091.177-.017.239-.096l.004-.003c.1-.113.17-.25.258-.374.039-.04.09-.058.138-.082.064-.133-.002-.28.039-.413.047-.149.114-.096.174 0-.017.24.077.459.11.69-.019.088-.042.173-.143.203-.24.04-.282.284-.428.42a.406.406 0 01-.073.076c-.169.123-.23-.091-.354-.113a1.052 1.052 0 01-.203-.077.417.417 0 00-.259-.07c-.364.021-.591-.131-.662-.499l-.103-.31c-.01-.092-.11-.216.084-.236l-.003.001z" fill="#F6C3D5"/><path id="Vector_108" d="M22.397 26.274c-.031-.074.064-.198-.086-.227-.08.035-.121-.017-.16-.073-.283-.015-.295-.28-.349-.448a2.331 2.331 0 00-.25-.506c.178-.061.277-.239.45-.308h.08c.113.111.097.25.081.388-.2.435.272.426.42.672.228-.323.068-.718.277-1.005.104.37-.206.745.006 1.115-.003.183-.238.118-.277.264-.048.068-.074.167-.19.128h-.002z" fill="#F4C3D3"/><path id="Vector_109" d="M17.99 21.898c.05-.212-.072-.45.087-.647.237.412.41.81.174 1.307-.127.267.019.588.096.877.023.086.076.163.02.27-.559-.52-.32-1.194-.377-1.807z" fill="#F5BED1"/><path id="Vector_110" d="M24.35 19.036c.025.162-.179.328.006.488.13.168-.123.329-.007.497.028.129.067.256.09.388 0 .114.015.236-.131.303-.099-.086-.094-.232-.18-.324-.269-.363-.412-.804-.814-1.167.4.033.539.313.774.465.085-.218.061-.482.264-.65h-.002z" fill="#F4BED0"/><path id="Vector_111" d="M20.096 25.488l-.063.059c-.113.072-.127.259-.3.26-.305-.187-.393-.546-.633-.784a.447.447 0 01.387-.003c.322-.05.36.343.615.393.05.028.047.053-.006.075z" fill="#C66B8A"/><path id="Vector_112" d="M20.056 24.706c-.122-.443-.35-.87-.209-1.388.24.168.26.417.278.662.068.192.132.383.118.59-.008.114-.04.208-.187.136z" fill="#F6C3D5"/><path id="Vector_113" d="M18.33 25.65c.19.311.458.457.83.404.076-.011.133.066.174.133-.096.109-.217.057-.324.04-.237-.038-.328.072-.33.292-.026.055-.062.094-.13.083-.07-.113-.207-.18-.232-.327.234-.132-.067-.259-.005-.39.005-.08.012-.16.016-.238v.003z" fill="#F6C2D4"/><path id="Vector_114" d="M23.318 23.07c-.149-.129.064-.42-.216-.49.073-.129.149-.258.222-.388a.533.533 0 01.308.298c.01.037.014.074.013.112-.058.173-.066.375-.27.462l-.057.005v.001z" fill="#CB7E97"/><path id="Vector_115" d="M24.371 21.015c-.058.275-.158.512-.485.549-.07-.346-.033-.384.352-.477.097-.023.022-.152.044-.229.141-.012.113.074.09.156v.001z" fill="#CD7492"/><path id="Vector_116" d="M20.057 24.706c.212-.052.135-.222.132-.349-.004-.126-.04-.251-.062-.377.195.32.217.677.217 1.038-.137-.06-.143.02-.148.126-.006.12.057.264-.097.344a.153.153 0 00.005-.075c.04-.24.039-.476-.047-.709v.002z" fill="#F6C2D4"/><path id="Vector_117" d="M22 24.712c-.131.129-.139.438-.448.308-.046-.12.099-.184.093-.272-.011-.157.006-.31.172-.324.174-.014.068.224.182.29l.002-.002z" fill="#F3D9E0"/><path id="Vector_118" d="M20.28 25.892l.173-.184.133.19c.014.222.033.45-.31.299-.165-.1-.165-.112.004-.307v.002z" fill="#FDF5F8"/><path id="Vector_119" d="M24.37 21.015l-.09-.155c-.106-.14-.097-.316-.153-.472.11.04.132.15.187.244.08-.076.025-.168.045-.247.057-.005.102.006.11.076.005.039 0 .078.014.116a.33.33 0 01-.001-.118c.008-.07.053-.078.11-.07.043.25-.134.424-.22.628l-.002-.002z" fill="#EAABC0"/><path id="Vector_120" d="M23.569 22.51c-.04-.137-.245-.15-.245-.318.174-.077.141-.324.323-.391v.082c-.007.212.225.454-.08.628h.002z" fill="#EDB5C8"/><path id="Vector_121" d="M22.163 25.1c-.136-.107-.068-.256-.082-.388.387.053.259.215.082.388z" fill="#F3D9E1"/><path id="Vector_122" d="M21.445 24.72c-.01.118.07.313-.124.305-.187-.008-.088-.203-.105-.318.08-.063.157-.064.23.013z" fill="#FAEFF3"/><path id="Vector_123" d="M18.31 25.103c-.098.054-.06.157-.084.237a1.1 1.1 0 01-.132-.535c.172.06.218.162.216.298z" fill="#E18CA9"/><path id="Vector_124" d="M20.646 25.347c-.089-.106-.19-.222-.088-.359.062-.081.13.01.187.054.03.122.138.27-.1.306l.001-.001z" fill="#F1D2DC"/><path id="Vector_125" d="M20.646 25.347c.13-.07.093-.195.1-.306.123.06.006.25.158.296.031.098 0 .175-.079.235l-.144-.156a.56.56 0 01-.033-.07h-.002z" fill="#F2D1DB"/><path id="Vector_126" d="M20.824 25.573l.079-.234c.152.019.05.196.152.247-.085.157-.16.128-.23-.011v-.002z" fill="#F1D2DC"/><path id="Vector_127" d="M21.22 18.35c.12.054.244.098.315.222-.026.028-.049.057-.074.085-.141-.053-.276-.113-.24-.306z" fill="#E598B2"/><path id="Vector_128" d="M19.732 25.807c.102-.085.143-.24.302-.26-.054.153-.093.322-.3.342v-.082h-.002z" fill="#F6C2D4"/><path id="Vector_129" d="M20.746 25.807c.072.088.223.18.074.29-.085.064-.15-.037-.142-.142l.068-.146v-.002z" fill="#DF80A1"/><path id="Vector_130" d="M19.73 25.892c-.012.087.015.197-.114.215-.081.011-.11-.052-.124-.12.08-.03.159-.062.239-.095h-.002z" fill="#F6C2D4"/><path id="Vector_131" d="M18.877 25.565c-.168.01-.254-.099-.328-.226.16 0 .245.113.328.226z" fill="#F6C2D4"/><path id="Vector_132" d="M22.15 25.974c.054.025.107.048.16.074-.025.202-.138.102-.232.066l.072-.142v.002z" fill="#DA7A9A"/><path id="Vector_133" d="M19.25 25.807c-.136-.027-.277-.049-.309-.223.123.047.256.079.31.223z" fill="#F6C2D4"/><path id="Vector_134" d="M21.446 24.72l-.23-.013c.007-.06.009-.13.09-.127.083.003.121.065.138.14h.002z" fill="#DA7D9C"/><path id="Vector_135" d="M19.487 25.02l-.387.003c.128-.12.257-.12.387-.003z" fill="#CE7B99"/><path id="Vector_136" d="M24.901 24.696c.297-.93.628-1.841 1.252-2.614.553-.685 1.287-1.01 2.149-1.11-.055.24-.281.277-.432.378-.959.636-1.398 1.612-1.767 2.638-.161.45-.229.94-.538 1.326-.113.14.025.17.06.248-.128.127-.262.077-.328-.043-.121-.215-.327-.333-.49-.498-.035-.127.05-.221.096-.325H24.9z" fill="#F9C5D7"/><path id="Vector_137" d="M28.902 25.653c.507-.556 1.183-.922 1.667-1.51.149-.18.22-.408.392-.58.118.448-.039.844-.58 1.377-.143.14-.176.239-.058.391.026.097.11.214-.08.239-.244-.219-.434-.159-.667.055-.374.34-.616.757-.834 1.199-.162-.004-.143-.132-.16-.235.07-.325.03-.686.32-.936z" fill="#F7C2D5"/><path id="Vector_138" d="M24.9 24.696c.021.121-.026.228-.069.335a.99.99 0 01.178.255c.118.227.337.52.46.615-.165.384-.374.723-.812.844-.235.066.018.209-.045.303-.26.005-.388-.204-.557-.345-.044-.073-.118-.113-.18-.168a.127.127 0 01-.015-.093c.052-.082.152-.107.206-.186a2.49 2.49 0 01.083-.113c.066-.064.16-.094.218-.168.102-.331.202-.664.305-.996-.056-.105-.096-.204.09-.198l.139-.085z" fill="#F6C3D4"/><path id="Vector_139" d="M27.26 27.912l-.155.005c.117-.393.286-.742.729-.86.147.216.44.062.605.238-.166.171-.373.287-.6.411.161.107.304.041.436.063a.188.188 0 01-.005.073l-.541.001c-.171-.078-.32-.014-.47.066l.002.003z" fill="#C97692"/><path id="Vector_140" d="M24.113 26.596c.091.234.364.265.5.452l.131.029.084.144c.105.193-.03.308-.142.43-.166.07-.337.123-.52.109-.051-.016-.133-.066-.117-.082.289-.301-.014-.553-.066-.822-.025-.128-.1-.267.13-.259v-.001z" fill="#FCF5F7"/><path id="Vector_141" d="M25.47 25.901c-.156-.182-.27.077-.448.04.138-.35-.17-.593-.19-.91.243-.005.39.15.465.342.069.175.17.21.326.189.055.16.005.273-.154.338v.001z" fill="#FCF3F6"/><path id="Vector_142" d="M27.095 26.505c.31-.257.692-.39 1.03-.6.03.068-.244.238.07.214l.017.048c-.09.15-.285.161-.389.295a.453.453 0 01-.141.055.7.7 0 00-.19.074c-.066.036-.132.063-.209.05-.069-.038-.218.035-.19-.136h.002z" fill="#D4638A"/><path id="Vector_143" d="M23.786 25.963c.024-.258.038-.519-.07-.762-.065-.145 0-.24.081-.34-.039-.1.008-.17.08-.23a.626.626 0 01.159-.404c-.01.245-.162.506.081.722-.105.079-.2.162-.147.316.019.212.06.423-.017.632a.22.22 0 01-.065.086.114.114 0 01-.102-.02z" fill="#D4638A"/><path id="Vector_144" d="M28.903 25.653c-.152.294-.14.63-.232.938-.037.058-.07.124-.158.077-.162-.26-.139-.52.003-.779l.387-.236z" fill="#C06885"/><path id="Vector_145" d="M28.516 25.889c.033.26-.082.535.078.782.022.129.025.252-.105.333-.108-.03-.234.052-.333-.049-.066-.168-.072-.33.068-.463.143-.137.07-.251-.022-.37h-.005c.02-.194.217-.15.32-.232l-.001-.001z" fill="#C77490"/><path id="Vector_146" d="M24.125 25.014c.19.317.066.633 0 .949a2.863 2.863 0 01-.087.245c-.113.072-.205.066-.268-.068-.016-.092.052-.133.111-.179h.01c.138-.22.044-.455.037-.686.043-.104.08-.212.195-.263l.002.002z" fill="#F1B9CC"/><path id="Vector_147" d="M28.438 27.297c-.14 0-.278-.004-.418.001-.17.008-.224-.08-.212-.234.198-.203.421.044.627-.036.06-.005.119-.013.157.05-.052.072-.102.146-.154.219z" fill="#BE6381"/><path id="Vector_148" d="M28.525 25.585c-.128-.191-.277.015-.416-.02.184-.206.459-.206.707-.298-.066.135-.112.282-.29.319z" fill="#EDB1C6"/><path id="Vector_149" d="M24.763 24.781c-.09.04-.106.112-.09.2-.095.03-.208.094-.231-.073-.015-.095-.044-.216.075-.27.133-.06.22 0 .245.143h.001z" fill="#F8EAEE"/><path id="Vector_150" d="M24.402 24.48c-.02.086-.02.191-.131.21-.128.022-.15-.072-.151-.168 0-.088-.017-.198.108-.21.108-.012.156.07.174.168z" fill="#F5E0E6"/><path id="Vector_151" d="M30.242 25.568c.091-.058.07-.154.079-.238.16.16.177.355.138.595-.121-.11-.212-.204-.217-.357z" fill="#EBABC1"/><path id="Vector_152" d="M28.591 27.078l-.155-.02c-.014-.016-.019-.032-.014-.047.004-.016.01-.024.012-.024.107-.077.09-.218.157-.316l.077-.08c.011.082-.02.178.074.233.015.124-.072.187-.15.254z" fill="#E3A2B7"/><path id="Vector_153" d="M24.125 25.014c-.01.11-.052.198-.162.24-.025.043-.047.04-.063-.006-.081-.21-.083-.364.217-.3 0 .022.005.044.008.066z" fill="#FAEBF0"/><path id="Vector_154" d="M24.037 26.126c-.088-.116.034-.12.086-.162.078.057.16.037.243.011 0 .118-.12.142-.172.217-.087.06-.118-.015-.159-.066h.002z" fill="#DE81A1"/><path id="Vector_155" d="M25.686 18.256c0-.14-.08-.099-.156-.069-.05-.063-.042-.122.005-.182.107-.066.21-.07.314.006l.008.007c-.057.08-.07.191-.173.237l.002.001z" fill="#E1A0B1"/><path id="Vector_156" d="M29.302 30.915c-.111.088-.99.198-1.094.137-.086-.05-.1-.13-.033-.192.156-.141.145-.478.493-.402.115.025.063-.112.083-.175.087-.045.12.016.153.077.084.112.21.066.32.085.045.187-.036.311-.18.4.07.03.233-.19.261.07h-.003z" fill="#CC7693"/><path id="Vector_157" d="M28.9 30.36c-.05-.025-.1-.052-.152-.077.027-.301-.003-.619.237-.86.132.128.185.334.39.389.181.157.283.314 0 .473-.13-.112-.261-.043-.393-.003l-.085.078h.003z" fill="#C7718E"/><path id="Vector_158" d="M27.02 30.745c.259-.176.561-.235.853-.32l.04.031c.032.063.098.091.145.14.026.087-.048.118-.092.165-.13.218-.33.206-.493.09-.149-.107-.293-.112-.453-.104v-.002z" fill="#CA7894"/><path id="Vector_159" d="M29.3 30.915c-.064-.13-.183.003-.286-.046l.207-.426c.06.029.117.055.177.085.118.058.275.121.242.27-.036.165-.214.103-.338.117h-.001z" fill="#C46B89"/><path id="Vector_160" d="M28.206 29.889l-.237-.245c-.081-.11-.015-.189.057-.267.107-.06.212-.143.332-.027.011.179-.065.358 0 .537-.05.043-.1.049-.152 0v.002z" fill="#C46987"/><path id="Vector_161" d="M29.378 29.812c-.022.187-.1.093-.165.031-.12-.114-.259-.223-.226-.42.22.039.349.17.391.389z" fill="#BE6180"/><path id="Vector_162" d="M28.205 29.889h.152c.063.267-.028.454-.232.477-.023-.02-.033-.04-.028-.063.005-.023.01-.034.017-.034.017-.129.12-.237.09-.377l.001-.003z" fill="#CC7693"/><path id="Vector_163" d="M28.357 29.35l-.312.079c-.082.042-.162.049-.24-.011l.003.003c.01-.226.254-.16.348-.283.066-.033.13-.078.206-.022 0 .065.019.118.08.15l-.085.083v.001z" fill="#E9B0C3"/><path id="Vector_164" d="M26.398 30.916c.082-.124.208-.076.32-.08.08.1.157.203.238.304-.033.032-.065.067-.098.1-.212-.025-.301-.221-.458-.324h-.002z" fill="#ECADC3"/><path id="Vector_165" d="M28.984 30.28c.18-.14.358-.138.394.003l-.394-.003z" fill="#CD829C"/><path id="Vector_166" d="M28.115 30.268l.01.099v.152a.09.09 0 01-.082.04.18.18 0 01-.15-.108l-.018-.025c.053-.092.143-.133.24-.157v-.001z" fill="#CA7894"/><path id="Vector_167" d="M28.044 30.52c.026 0 .055 0 .081-.002.132.2-.042.2-.158.241l.077-.158c-.029-.017-.038-.036-.029-.054.01-.018.018-.026.027-.026l.002-.002z" fill="#CC7693"/><path id="Vector_168" d="M29.363 28.385c.02-.056.025-.143.112-.108.083.033.056.126.063.198l-.175-.09z" fill="#DB7499"/><path id="Vector_169" d="M19.484 26.201c.163-.07.126.277.316.153.02.017.045.04.04.061-.089.435.153.596.53.648.166.111.166.216-.012.314-.282.072-.59-.145-.858.074-.063.028-.083.08-.086.142-.19.05-.219-.081-.242-.216.001-.027.003-.052.003-.079.061-.108.173-.144.278-.19.045-.02.097.01.14-.025-.05-.02-.077-.064-.104-.108a1.071 1.071 0 01-.099-.412c-.003-.13.003-.258.096-.361h-.002z" fill="#F6C2D4"/><path id="Vector_170" d="M19.487 26.593l.076.381c-.112.139-.231.043-.35.013-.118-.03-.21-.166-.353-.083l-.311-.3.102-.098c.103-.226.287-.253.502-.2.124.08.257.148.334.285v.002z" fill="#C6738F"/><path id="Vector_171" d="M18.86 26.902c.009-.168.098-.138.205-.09.16.07.306.186.499.161-.025.061.213.104.011.176a40.56 40.56 0 00-.4.15c-.166-.084-.18-.288-.316-.397h.002z" fill="#F8C5D7"/><path id="Vector_172" d="M18.469 27.617a.556.556 0 01-.313-.16c.143-.316.42-.093.625-.156.04.192-.135.266-.212.393-.058.008-.07-.049-.1-.077z" fill="#C8718E"/><path id="Vector_173" d="M17.604 27.848c.191.555.14.624-.463.63.152-.212.381-.366.463-.63z" fill="#D3809C"/><path id="Vector_174" d="M19.172 27.378c.105.046.11.203.241.217.026.032.05.065.074.096-.106.013-.177.269-.33.022-.09-.143-.232.05-.354.053-.05-.21.227-.213.22-.388h.149z" fill="#CC7694"/><path id="Vector_175" d="M16.976 27.922l-.09-.09c.059-.064.131-.18.21-.088.086.101-.038.143-.12.177v.001z" fill="#E8A0B8"/><path id="Vector_176" d="M26.398 30.916c.275-.064.302.223.459.324.375.721.058 1.359-.252 1.992-.127.261-.244.519-.22.817-.082.159 0 .393-.228.48-.06-.296-.24-.453-.521-.582-.286-.13-.51-.383-.699-.654-.083-.119-.213-.205-.397-.377.1.516.265.87.597 1.138-.456.05-.919.102-1.327-.164-.486-.317-.952-.667-1.434-.994-.455-.308-.498-1.065-.182-1.508.083-.118.273-.268.12-.393-.131-.11-.305-.316-.542-.154a1.15 1.15 0 01-.306-.25c-.035-.069-.1-.072-.167-.077-.133-.11-.014-.265-.07-.39-.088-.322-.24-.634-.11-.983.07-.189.138-.26.36-.14.382.207.773.423 1.233.413.15-.037.242.05.323.157.15.192.35.091.53.08.28-.017.553-.078.804-.218.57-.104 1.14-.174 1.71-.006.14.055.305.096.153.298-.363.465-.701.948-1.227 1.264-.207.124-.425.17-.642.245-.189.113-.407.075-.609.117a1.163 1.163 0 01-.1.048c-.172.086-.341.053-.515 0-.16-.047-.331-.077-.402.144-.005.05-.008.102-.01.153-.007.205.008.403.151.57a.652.652 0 01.063.085c.22.415.51.763.923 1 .061-.001.165.181.172-.012.01-.233-.05-.467-.155-.682-.056-.116-.138-.225-.114-.367a.18.18 0 01.069-.092c.303-.096.632-.037.927-.168.217-.088.438-.138.667-.031-.18-.208-.486-.248-.618-.508a.101.101 0 01.019-.102c.522-.159 1.046-.316 1.569-.474l-.002.001z" fill="#D0507F"/><path id="Vector_177" d="M26.156 34.53c.143-.129.102-.344.228-.48-.013.19.074.427-.228.48z" fill="#DE7E9F"/><path id="Vector_178" d="M18.385 28.862c.06-.21-.062-.28-.235-.354-.36-.154-.435-.402-.227-.657.134-.052.27-.083.398.018.049.328.276.647.064.993z" fill="#C87A94"/><path id="Vector_179" d="M20.755 29.886l.38.322c.19.365.055.537-.428.544a.217.217 0 01-.142-.11c-.017-.1.01-.19.079-.266.027-.03.069-.033.102-.056-.038-.007-.057.025-.085.042-.133.027-.179-.07-.227-.162l.32-.317.001.003z" fill="#C77590"/><path id="Vector_180" d="M20.59 30.598c.024.028.049.056.072.085.123.076.29.034.399.149l-.251.235c-.096-.276-.44-.253-.578-.487-.075-.127-.197-.226-.343-.386l.448.023c.128.1.264.192.253.382v-.001z" fill="#F3BDD0"/><path id="Vector_181" d="M20.59 30.598c-.119-.104-.222-.219-.252-.382l.1-.011c.121-.011.151.113.234.157-.005.086.016.18-.078.236h-.003z" fill="#C06A86"/><path id="Vector_182" d="M18.32 27.869a26.482 26.482 0 00-.398-.018c.129-.204.466.082.548-.234.033.025.067.05.1.077-.03.135-.14.156-.25.176v-.001z" fill="#EAAEC2"/><path id="Vector_183" d="M28.745 27.919l.478-.077c-.255.374-.405.748-.7 1.03-.088.093-.178.139-.207-.037-.02-.115.02-.231.05-.343.086-.213.161-.437.387-.553l-.008-.02z" fill="#BA5E7C"/><path id="Vector_184" d="M28.436 28.483c0 .111-.014.218-.044.328-.04.153.079.057.132.062-.008.111-.082.18-.163.243a6.6 6.6 0 01-.156.07c-.215.095-.259-.087-.34-.21-.022-.08.008-.144.064-.2a.268.268 0 01.141-.045c.156-.058.077-.176.07-.276a.523.523 0 01-.009-.11c.02-.12.05-.236.183-.281.196.094.183.25.123.419h-.001z" fill="#C36F8B"/><path id="Vector_185" d="M21.463 30.591c.17 0 .298.052.306.25-.005.159-.113.242-.232.32l-.088-.018c-.07-.065-.068-.178-.154-.231-.003-.138.107-.217.168-.32z" fill="#D1859E"/><path id="Vector_186" d="M24.267 20.003c-.194-.201.12-.308.09-.479l.383-.556c.244.04.067.232.125.34-.003.078.013.158-.036.229-.113.117-.239.224-.342.352-.064.054-.102.161-.22.114z" fill="#D46189"/><path id="Vector_187" d="M24.831 19.378c-.026-.137.05-.297-.09-.408.08-.168.163-.337.242-.505l.102.03c.02.038.008.066-.03.085-.19.231-.156.51-.161.778-.01.037-.033.044-.063.02z" fill="#D5628B"/><path id="Vector_188" d="M24.79 17.02l-.051.459-.133-.204a.315.315 0 01.053-.244l.132-.011z" fill="#D67897"/><path id="Vector_189" d="M24.657 17.032c.014.088.044.18-.053.242-.104-.107-.139-.2.053-.242z" fill="#857F5B"/><path id="Vector_190" d="M25.376 17.248l.143.075c.124.137-.008.322.084.465l.008.008c.03.06-.005.097-.045.133-.063.03-.124.076-.195.016.105-.232.091-.465.005-.697z" fill="#8D9E68"/><path id="Vector_191" d="M25.37 17.945l.167-.069c.049.063.044.126 0 .187-.001.04-.003.083-.006.124l-.075.086c-.032.03-.058.024-.079-.012.03-.105-.138-.21-.005-.316h-.001z" fill="#ABB17B"/><path id="Vector_192" d="M25.377 18.261c.027.005.052.01.079.013-.104.14-.195.295-.397.305a.857.857 0 01.03-.085c.097-.079.192-.156.29-.233h-.002z" fill="#F3C0D1"/><path id="Vector_193" d="M26.777 17.323l.043.223-.11.175c-.266.012-.545.157-.78-.088.003-.066.018-.125.092-.143.203 0 .405-.032.606.026-.152-.063-.336.02-.47-.116l.162-.15c.052 0 .104-.002.156-.004a.504.504 0 01.303.077h-.002z" fill="#7B8E55"/><path id="Vector_194" d="M25.927 17.632c.252.106.517.084.78.088-.25.201-.629.027-.858.293l-.314.051v-.187l.075-.08c.139.008.208-.116.316-.163l.002-.002z" fill="#8AAA4C"/><path id="Vector_195" d="M138.001 1.03c-.154-.24-.333-.515-.706-.411-.214-.268-.438-.063-.658-.015-.7.283-.826 1.03-.512 1.642.044.087.12.085.198.044-.034-.094-.071-.188-.105-.284-.159-.448-.049-.823.326-1.117.165.019.299-.014.339-.2.005 0 .01 0 .013.002.116.086.227.088.337.006V.7c.021.1.102.142.176.194.451.315.529.587.328 1.121-.077.189-.257.277-.391.41a.208.208 0 00-.026.05h-.151a.402.402 0 00-.198 0h-.139a.217.217 0 00-.01-.043c-.064-.095-.147-.145-.265-.106h-.198c.021.219.167.291.36.307.232.05.463.053.695-.003.279-.13.515-.304.642-.602.147-.346.139-.69-.055-.995V1.03z" fill="#186840"/><path id="Vector_196" d="M25.604 17.788c-.138-.135-.042-.313-.084-.465.03-.053.06-.107.089-.162l.014.083-.019.542v.002z" fill="#62793C"/><path id="Vector_197" d="M26.39 16.538l.064.062c-.033.137-.083.27-.056.415-.005.02-.008.04-.011.058-.132-.179-.097-.358.003-.535z" fill="#B69785"/><path id="Vector_198" d="M26.157 17.401c.166.02.357-.05.502.156-.23-.017-.443.074-.637-.066l.136-.09h-.002z" fill="#5E7838"/><path id="Vector_199" d="M21.059 30.83a.482.482 0 01-.399-.15c.513-.02.564-.068.476-.472l.09-.086c.202.097.034.262.07.39l-.237.315v.003z" fill="#D487A1"/><path id="Vector_200" d="M21.295 30.912c.294-.085.107.15.154.23-.09.002-.19.026-.248-.076l.096-.154h-.002z" fill="#C4718C"/><path id="Vector_201" d="M22.63 31.539c.057-.373.321-.31.545-.228.173.063.32.082.48-.003.214-.008.426-.003.633.064.18.006.361.013.542.017-.002.022-.002.044-.002.066-.017.079-.078.112-.144.142-.253.056-.454.147-.31.468-.149.187-.367.055-.541.12-.085.028-.144-.008-.195-.073.008-.166-.095-.187-.22-.157-.161.038-.293.003-.341-.157-.073-.234-.253-.247-.445-.26h-.001z" fill="#CD7C97"/><path id="Vector_202" d="M28.436 26.986v.07c-.207.17-.42-.072-.626.007-.297.234-.479.562-.705.854l-.706.005c-.027-.017-.035-.04-.022-.07 0-.348.331-.472.488-.714.129.045.235.166.39.113a.738.738 0 00.085-.05c.1-.093.17-.215.297-.277.159-.073.232-.282.438-.28.16.068.025.243.12.335.08-.006.166-.3.24.005l.001.002z" fill="#CE7C98"/><path id="Vector_203" d="M27.887 28.95c.139.036.148.243.317.237-.064.195-.302.094-.397.235-.276-.01-.49-.168-.71-.309 0-.4-.335-.508-.598-.676a.739.739 0 01-.03-.045c.19-.135.408-.162.632-.151.152.1.214.281.353.393.121.09.26-.02.385.03a.148.148 0 01.072.066c.02.077-.102.138-.024.221v-.001z" fill="#CB7A96"/><path id="Vector_204" d="M21.297 27.064c.17.05.154.476.47.234a.332.332 0 01.09.057c.15.154.35.15.543.166.038 0 .074.005.11.011a.277.277 0 01.146.074c.091.146.052.29-.003.437-.08.209-.18.352-.411.16-.062-.05-.117-.033-.175-.005-.053.013-.103.01-.14-.04-.064-.293-.404-.346-.52-.626a1.548 1.548 0 01-.109-.47l-.001.002z" fill="#F7E8EC"/><path id="Vector_205" d="M22.077 28.17c.038-.055-.028-.32.129-.132.424.51.267-.165.419-.195.015-.003.005-.144.006-.221.035-.027.07-.03.108-.006.203.174.264.397.242.655.006-.074 0-.154.002-.235 0-.12.06-.208.182-.21.152-.002.166.132.133.226-.091.256.165.472.068.723-.03.036-.065.04-.1.011-.304-.025-.536-.314-.867-.23-.072-.134-.225-.175-.322-.28a.09.09 0 01.002-.101l-.002-.005z" fill="#FAEFF2"/><path id="Vector_206" d="M24.67 27.61c.071-.122.189-.225.157-.39.195.622.118 1.034-.232 1.258-.048.038-.12.024-.162.072-.026.027-.051.054-.078.08-.133.08-.206.01-.257-.106 0-.038.012-.07.034-.1.301-.174-.053-.405.053-.595.148-.107.34-.114.487-.22l-.002.002z" fill="#FAEFF3"/><path id="Vector_207" d="M23.804 28.785l-.315.01-.04-.037c-.243-.302-.143-.666-.172-1.006-.014-.16.086-.28.26-.262.185.019.094.123.041.206.038-.01.075-.044.115-.002a.723.723 0 01.208.374c.003.244.079.498-.095.717h-.002z" fill="#FAEFF2"/><path id="Vector_208" d="M20.371 27.062c-.191.21-.332-.063-.51-.06-.135.002-.157-.155-.143-.273.016-.125.054-.25.082-.374l.002-.003c.119-.056.179-.45.376-.067 0 .08-.017.16-.001.24l.193.539.001-.002z" fill="#C97691"/><path id="Vector_209" d="M19.5 27.452c-.028-.07-.07-.133.059-.165a1.11 1.11 0 01.802.09v.496c-.303-.149-.581-.286-.859-.42h-.001z" fill="#C36F8A"/><path id="Vector_210" d="M26.942 29.08l-.932-.325c.141-.12.268-.282.458-.363l.014.017c.303.12.48.328.462.67h-.002z" fill="#C16C88"/><path id="Vector_211" d="M27.415 28.712a.797.797 0 01-.313-.473c.17-.11.362-.07.547-.083.01.01.02.023.028.033.052.1.137.006.201.033a.173.173 0 01.065.088c-.024.333-.25.4-.526.402h-.002z" fill="#C5748F"/><path id="Vector_212" d="M26.168 30.497c.215-.236.425-.474.647-.704.098-.104.227-.08.31.017.115.137-.048.178-.117.228-.256.184-.52.354-.782.53a34.95 34.95 0 00-.056-.071h-.002z" fill="#D76A8F"/><path id="Vector_213" d="M23.805 28.784c0-.259.001-.52.003-.779a.352.352 0 01.264-.206c.051-.003.098.01.131.055.058.219.443.481-.081.622-.044.011-.025-.17-.1-.037-.059.107-.032.251-.133.347h-.084v-.002z" fill="#F5E1E7"/><path id="Vector_214" d="M24.433 28.552c0-.143.08-.112.162-.073.146.06.116.296.306.313.04.05.12.024.16.08.02.098.207.16.058.294-.135.122-.167-.052-.247-.085-.235-.1-.464-.209-.44-.526v-.003z" fill="#F6E1E7"/><path id="Vector_215" d="M23.034 29.571c-.109-.051-.217-.105-.324-.157-.028-.099-.132-.301-.001-.268.158.04.416-.13.507.17.058.194.018.266-.18.254l-.002.001z" fill="#F8E3EA"/><path id="Vector_216" d="M26.942 29.08c-.129-.24-.24-.493-.462-.671.385-.046.523.292.736.496.101.098.005.186-.12.208l-.154-.033z" fill="#D05683"/><path id="Vector_217" d="M26.377 27.855a.15.15 0 01.022.069c-.103.2-.25.28-.478.21-.098-.03-.27.063-.269-.116 0-.132.153-.159.27-.165.15-.008.305-.072.455.003v-.002z" fill="#FCF0F4"/><path id="Vector_218" d="M28.437 28.483c.004-.156-.03-.294-.159-.396-.097.135-.213.224-.39.154-.067-.058-.17.02-.23-.063l-.008-.024c.355-.141.722-.22 1.105-.216l-.317.543-.001.002z" fill="#CB7A96"/><path id="Vector_219" d="M26.08 27.064l.29.005c.055.008.063.033.026.072.003.209-.242.251-.292.429-.006.023-.12.04-.173.023-.08-.023-.052-.092-.038-.158.032-.141.109-.258.189-.372h-.002v.001z" fill="#FAEDF1"/><path id="Vector_220" d="M27.338 27.298c-.226.151-.379.08-.473-.158.137-.128.185-.341.39-.403.172.165.003.382.081.561h.002z" fill="#C87491"/><path id="Vector_221" d="M26.083 27.063c-.102-.002-.276.006-.253-.103.03-.135-.008-.28.063-.4.017-.03.094-.038.143-.036.074.003.133.055.113.125-.04.137.031.29-.068.413l.002-.001v.002z" fill="#FAEDF1"/><path id="Vector_222" d="M26.396 27.143a.189.189 0 00-.025-.073c.166-.284.457-.41.724-.564.056.098.15.085.241.087.018.02.024.04.02.061-.004.022-.009.033-.015.033-.035.019-.066.016-.094-.011-.381-.02-.54.363-.852.468l.001-.001z" fill="#DA7498"/><path id="Vector_223" d="M20.11 26.352l-.023-.183-.284.183c.02-.245.309-.325.353-.562.005-.025.094.047.124.102.023.102-.145.203-.005.306v.082c-.033.072-.078.12-.165.074v-.002z" fill="#F6C2D4"/><path id="Vector_224" d="M23.888 28.786c-.005-.23-.035-.472.254-.58.068.108-.044.182-.022.27-.047.1.02.227-.078.313-.052 0-.102-.002-.154-.003z" fill="#FBF3F6"/><path id="Vector_225" d="M25.368 28.64c.026-.187.162-.173.294-.154.028.005.077.052.074.07-.027.147-.13.213-.27.23-.065-.028-.126-.056-.098-.146z" fill="#FBEFF3"/><path id="Vector_226" d="M22.478 29.072c-.129-.063-.306.012-.378-.145-.024-.05.008-.103.066-.118.21-.055.255.115.312.263z" fill="#FBF1F4"/><path id="Vector_227" d="M27.262 27.912c.13-.206.27-.349.469-.066-.148.087-.308.082-.47.066z" fill="#CE7C98"/><path id="Vector_228" d="M21.375 26.435c-.016.146-.053.283-.162.39-.11-.163-.009-.331.041-.465.047-.122.098.011.121.075z" fill="#ECB5C6"/><path id="Vector_229" d="M27.249 26.674l.086-.005c.176.208.11.417.005.627l-.003.003c-.141-.015-.177-.097-.124-.216a.755.755 0 00.042-.344c0-.022-.003-.043-.006-.065z" fill="#CE7C98"/><path id="Vector_230" d="M20.11 26.352l.165-.074c.087.057.1.142.065.225-.033.08-.107.01-.162.022-.11-.024-.15-.074-.067-.173z" fill="#F6E6EA"/><path id="Vector_231" d="M22.09 28.238c.178.03.28.135.308.314-.106-.052-.211-.104-.318-.155-.042-.055-.049-.109.01-.16z" fill="#F4DAE2"/><path id="Vector_232" d="M24.285 31.372c-.226.122-.427.014-.633-.065v-.003c.21-.066.418-.064.627 0 0 .022 0 .046.006.068z" fill="#E396AF"/><path id="Vector_233" d="M26.23 29.725c.047-.149-.053-.223-.152-.298.107 0 .239-.057.294.078.047.115-.04.181-.142.22z" fill="#E189A6"/><path id="Vector_234" d="M25.368 28.64l.097.146a.698.698 0 01-.404.083c-.065-.003-.126-.016-.16-.08.172 0 .354.031.467-.15z" fill="#EBB1C3"/><path id="Vector_235" d="M24.041 28.79c.011-.11-.034-.232.079-.313.044.103.119.157.233.155-.092.077-.18.16-.312.157z" fill="#F5E1E7"/><path id="Vector_236" d="M25.123 28.467c-.05-.006-.116-.005-.104-.074.016-.085.1-.104.17-.123.02-.004.073.035.073.054.002.091-.066.124-.14.143z" fill="#E9A6BC"/><path id="Vector_237" d="M24.279 31.306h-.627c.223-.155.471-.052.708-.072-.026.023-.055.047-.081.072z" fill="#CD7C97"/><path id="Vector_238" d="M21.11 27.498c-.007.094-.057.105-.109.1-.063-.005-.083-.053-.083-.108 0-.065.046-.096.099-.076.04.016.07.062.092.084z" fill="#F6B1C8"/><path id="Vector_239" d="M23.264 28.781a.27.27 0 00.07 0c.055-.037.109-.036.159.008l-.006.008c-.05.105-.13.177-.244.132-.136-.053-.127-.116.02-.146v-.002z" fill="#EAADC0"/><path id="Vector_240" d="M23.973 29.413c-.106-.005-.15-.032-.156-.09-.006-.061.025-.097.091-.078.05.014.102.039.096.1a.147.147 0 01-.031.068z" fill="#FBF1F4"/><path id="Vector_241" d="M24.368 29.433c-.061-.031-.178.027-.182-.078-.003-.068.066-.153.155-.12.104.04.028.13.027.198z" fill="#FBF2F5"/><path id="Vector_242" d="M22.09 28.238l-.01.159c-.068-.07-.24-.071-.154-.24l.15.013a.22.22 0 00.012.068h.001z" fill="#EAABBF"/><path id="Vector_243" d="M27.805 29.419l.24.01-.076.216c-.098-.042-.122-.141-.163-.226h-.001z" fill="#CB7A96"/><path id="Vector_244" d="M23.57 22.51c.187-.188-.135-.442.08-.628.11.013.22-.128.327-.01.116.127-.038.207-.074.306-.08.217-.113.45-.245.647-.096-.052-.006-.173-.085-.23 0-.03-.001-.056-.003-.084z" fill="#D0859D"/><path id="Vector_245" d="M24.267 20.003l.165-.166c.086-.054.174-.107.283-.105l.045.023-.17.63-.117.182c-.04-.061-.077-.122-.116-.185-.085-.115-.08-.25-.091-.382l.001.003z" fill="#CE7D98"/><path id="Vector_246" d="M23.878 24.63c.02.095-.028.162-.08.231-.116.008-.221-.001-.23-.154-.042-.045-.122-.015-.153-.08-.116-.159-.077-.284.08-.386.179.078.264.251.383.39z" fill="#FCF4F7"/><path id="Vector_247" d="M23.473 24.214c-.187-.014-.13-.157-.134-.26-.01-.294-.014-.59-.019-.884l.025-.015c.275.047.032.284.143.39l-.015.768v.001z" fill="#DB759A"/><path id="Vector_248" d="M23.487 23.446c-.137-.098-.013-.292-.143-.391a.783.783 0 00.229-.46c.094.053.069.149.085.23l-.17.62h-.001z" fill="#D25C86"/><path id="Vector_249" d="M24.832 19.378c.02-.008.043-.014.063-.02a.438.438 0 01-.135.398l-.033.007c-.056-.087-.031-.164.022-.24l.082-.147.002.002z" fill="#E1A0B5"/><path id="Vector_250" d="M23.495 28.787l-.158-.007c-.054-.294-.267-.565-.074-.926-.355.113-.167.387-.306.593.045-.35-.152-.57-.248-.828.044-.088.127-.115.215-.13.113 0 .176-.083.248-.15.005-.036.209-.107.005-.098-.228.01-.435.046-.587-.17-.058-.122-.091-.244-.029-.376.068-.126.082-.274.15-.4.037-.072.087-.138.177-.123.102.015.09.105.102.182.019.127.037.253-.055.364.174-.19-.079-.535.248-.67.063.03.078.087.08.152.019.245.41.283.326.586.088-.003.189.008.192-.12.001-.08-.017-.16.105-.147.083.01.182-.022.234.081-.277.206.185.36.037.557.37.2.154.369-.028.54.044.09-.038.113-.083.156h.002c-.193.105-.269-.084-.39-.156-.058-.025-.064.173-.154.032-.042-.066.203-.153-.003-.169-.133-.01-.185.142-.149.266.09.317-.023.663.148.966l-.005-.005z" fill="#F8EBEE"/><path id="Vector_251" d="M23.881 26.516c.02.295-.183.41-.41.54.026-.387-.044-.541-.211-.462v-.396l.394.074a.315.315 0 01.24.066.08.08 0 010 .093l-.011.086-.002-.001z" fill="#FEFBFC"/><path id="Vector_252" d="M23.178 26.046c-.03.152-.176.25-.118.459.05.176-.13.33-.32.415.127-.21.29-.404.16-.682-.232.103-.12.38-.27.513a.487.487 0 01-.147-.268.727.727 0 01.064-.365c-.03-.262.269-.078.317-.232.072.116.134.251.313.162l.001-.002z" fill="#FDF8FA"/><path id="Vector_253" d="M23.414 24.627c.063.002.126.007.152.08-.156.137.004.357-.15.528-.138-.215-.088-.411 0-.608h-.002z" fill="#EEB3C6"/><path id="Vector_254" d="M23.884 26.357c-.088 0-.18.014-.232-.085a.821.821 0 00-.004-.07c.035-.062.071-.121.157-.082.076.1.153.105.233.008l.158.066c-.023.028-.049.056-.072.085-.07.056-.135.127-.24.078z" fill="#EDB2C6"/><path id="Vector_255" d="M23.153 24.593c-.006.097-.058.105-.112.102-.064-.005-.086-.053-.086-.108 0-.066.047-.098.102-.077.043.015.072.06.096.083z" fill="#FCF2F5"/><path id="Vector_256" d="M23.806 26.118l-.157.082c-.073-.15.02-.201.137-.24h.097l-.078.158h.001z" fill="#E18BA8"/><path id="Vector_257" d="M22.548 26.117c0 .133.003.265.004.399-.039.195-.111.393.055.569.035.04-.008-.013.025.028.3.366.287.41-.158.5h-.079c-.168-.19-.438-.106-.627-.235v-.08c.087-.234.436-.35.309-.68.227-.002.295-.152.321-.343l.151-.157-.001-.001z" fill="#F8E8EC"/><path id="Vector_258" d="M19.178 26.357c-.198-.03-.364.055-.526.15-.14-.4-.114-.434.31-.39.125.012.249.047.373.072.025.01.05.017.074.027.052.256-.088.202-.231.141z" fill="#D15C86"/><path id="Vector_259" d="M19.18 26.357c.103-.005.219.013.23-.141a.211.211 0 01.075-.013l.003.39c-.095-.09-.3-.033-.31-.236h.001z" fill="#CE809B"/><path id="Vector_260" d="M23.885 26.357l.24-.079c-.003.164-.105.176-.232.153a.377.377 0 01-.008-.073v-.001z" fill="#DC7C9D"/><path id="Vector_261" d="M24.041 27.848l.083-.155c.182-.027.364-.056.548-.082-.102.185-.278.228-.47.242l-.161-.005z" fill="#EDC6D1"/><path id="Vector_262" d="M28.196 26.98c-.129-.065-.028-.245-.152-.312-.107-.052-.202-.115-.235-.239.023-.239.288-.171.392-.31.336.009.282.357.191.39-.285.105-.157.308-.194.472h-.002z" fill="#BC617F"/><path id="Vector_263" d="M27.339 27.297l-.005-.627c.002-.025.003-.052.002-.077l.158-.08c.247.063.15.262.165.416l-.01.057c-.147.06-.119.295-.31.31z" fill="#BD6180"/><path id="Vector_264" d="M27.809 26.43c.096.062.23.086.235.238-.136.099-.183.308-.392.317v-.003c-.033-.182-.068-.363 0-.545l.16-.008h-.003z" fill="#C67590"/><path id="Vector_265" d="M27.648 26.437c-.011.182.07.363 0 .545-.163-.12.01-.35-.154-.471.033-.063.09-.074.152-.074h.002z" fill="#D1829D"/><path id="Vector_266" d="M23.9 25.248l.063.006c.005.239.185.496-.07.71.003-.239.006-.478.007-.716z" fill="#EDB2C6"/><path id="Vector_267" d="M28.043 30.519v.08l-.207.011.055-.162.15.07h.002z" fill="#B95D7C"/><path id="Vector_268" d="M23.648 32.089l.159.078c.017.016.023.03.017.046-.006.015-.012.022-.019.022a2.107 2.107 0 00-.008.093c-.103.12.013.215.038.32.063.262.152.526-.038.776-.422-.273-.789-.59-.933-1.1a.406.406 0 01.081-.323c.05-.065.165-.123.184-.05.1.37.366.026.52.136v.002z" fill="#CA7792"/><path id="Vector_269" d="M23.649 32.088c-.116.05-.23.107-.352.146-.014.005-.34.136-.098-.124a.305.305 0 00-.088-.11c-.058-.036-.08.02-.112.062-.06.081-.033.207-.136.265-.148-.184-.156-.42-.234-.63v-.157c.218-.138.378-.129.494.141.088.208.109.198.674.18-.052.08-.1.155-.15.229l.002-.002z" fill="#BF6784"/><path id="Vector_270" d="M24.683 31.553l.143-.096c.225.215.582.264.747.613-.259.014-.508-.104-.737.025-.14.04-.278.074-.412-.019-.01-.221.139-.364.258-.523h.001z" fill="#F1B9CC"/><path id="Vector_271" d="M23.798 33.427c.019-.34.016-.674-.14-.991-.107-.219.014-.176.141-.105.281.333.286.76.39 1.153.01.04-.007.118-.033.132-.035.017-.1-.003-.138-.027-.077-.046-.146-.107-.219-.16l-.001-.002z" fill="#F5C0D2"/><path id="Vector_272" d="M24.436 32.02c.114.122.267.045.4.075-.326.166-.675.174-1.03.141a.24.24 0 000-.068c.153-.17.402.018.555-.152.025-.022.05-.02.075.003z" fill="#E9A8BE"/><path id="Vector_273" d="M22.63 31.696l.15.019c-.166.229.161.392.084.61-.26-.14-.235-.389-.234-.63z" fill="#CD7493"/><path id="Vector_274" d="M20.67 30.36c.014-.09-.026-.234.131-.212.14.02.124.173.091.245-.081.172-.144-.039-.224-.033h.002z" fill="#BB5F7D"/><path id="Vector_275" d="M27.886 28.24l.391-.153-.077.311a.967.967 0 01-.314.314c-.156-.058-.313.18-.472 0 .224-.09.479-.149.47-.471h.002z" fill="#C16986"/><path id="Vector_276" d="M27.887 28.712c.003-.206.18-.239.314-.314l.001.082a.374.374 0 01-.083.31h-.152c-.049-.004-.057-.05-.08-.08v.002z" fill="#CB7A96"/><path id="Vector_277" d="M28.118 28.789a.526.526 0 01.084-.31c.131.147.067.24-.084.31z" fill="#B95D7C"/><path id="Vector_278" d="M27.885 28.712l.08.079-.078.158c-.175-.078.006-.157 0-.237h-.002z" fill="#BA5E7C"/><path id="Vector_279" d="M24.749 19.524l-.022.239a.412.412 0 01-.295.074.834.834 0 01.317-.314v.001z" fill="#BF6583"/><path id="Vector_280" d="M137.366 1.554c.26-.22.102-.363-.095-.497-.2-.128-.425-.044-.637-.067a.153.153 0 00-.006.07l.009.013a1.919 1.919 0 000 1.086c.027.01.054.022.082.034l-.011-.031c.144-.118 0-.349.176-.454.072.053.146.107.218.162.163.069.074.487.419.304-.014-.215-.433-.328-.157-.617l.002-.003zm-.112-.107c-.147.047-.292.102-.452.077-.182-.385.149-.256.303-.305.08.055.171.104.149.228z" fill="#186840"/><path id="Vector_281" d="M24.436 32.02a1.185 1.185 0 00-.075-.004c-.077-.058-.248-.078-.195-.191.041-.088.11-.253.284-.21.09.023.096-.26.233-.062a.572.572 0 01-.247.466z" fill="#C36F8B"/><path id="Vector_282" d="M26.834 27.413c.067 0 .096.033.077.069a.224.224 0 01-.096.099c-.04.017-.072-.014-.05-.062.019-.04.049-.077.067-.106h.002z" fill="#C87491"/><path id="Vector_283" d="M22.473 27.612c.464-.122.155-.352.075-.548.028-.028.057-.032.086-.003.236.265.578-.076.824.154-.036.128-.155.138-.262.166-.111.014-.147.153-.264.157l-.224.08-.038-.001-.037.003-.159-.008h-.001z" fill="#EFCCD6"/><path id="Vector_284" d="M21.768 27.378c.227.027.517-.111.627.234-.22-.044-.485.022-.627-.234z" fill="#EFCCD6"/><path id="Vector_285" d="M23.654 27.692c.172-.055.24.153.389.156-.079.053-.157.105-.235.159-.041-.11-.17-.176-.154-.313v-.002z" fill="#EDC6D1"/><path id="Vector_286" d="M27.657 28.178c.085-.011.173-.032.23.063l-.272.193c-.079-.113.003-.18.042-.256z" fill="#BA5F7D"/><path id="Vector_287" d="M22.636 27.06c-.029 0-.057.002-.087.004-.248-.184-.183-.368.003-.548.093.055.073.149.079.234-.08.105.037.207.003.312l.002-.001z" fill="#F0C8D4"/><path id="Vector_288" d="M22.932 27.538c.088-.053.04-.334.263-.157-.058.104-.06.3-.263.157z" fill="#DD86A2"/></g></svg>